{
  "source": "C:\\Users\\Peter\\Desktop\\stuff\\MIUN\\quantitative_research\\video_compression\\videos\\BVI-HD\\BVI-HD_CDVL_videos\\ORIG\\BricksLeaves_1920x1080_60fps.mp4",
  "output": "C:\\Users\\Peter\\Desktop\\stuff\\MIUN\\quantitative_research\\video_compression\\compressed_videos\\BVI-HD\\hevc\\8\\BricksLeaves_1920x1080_60fps_hevc.mp4",
  "codec": "hevc",
  "ok": "Input #0, mov,mp4,m4a,3gp,3g2,mj2, from 'C:\\Users\\Peter\\Desktop\\stuff\\MIUN\\quantitative_research\\video_compression\\videos\\BVI-HD\\BVI-HD_CDVL_videos\\ORIG\\BricksLeaves_1920x1080_60fps.mp4':\n  Metadata:\n    major_brand     : isom\n    minor_version   : 512\n    compatible_brands: isomiso2avc1mp41\n    encoder         : Lavf54.28.101\n  Duration: 00:00:05.00, start: 0.000000, bitrate: 524627 kb/s\n  Stream #0:0[0x1](und): Video: h264 (High 4:4:4 Predictive) (avc1 / 0x31637661), yuv420p(progressive), 1920x1080, 524622 kb/s, 60 fps, 60 tbr, 60 tbn (default)\n    Metadata:\n      handler_name    : VideoHandler\n      vendor_id       : [0][0][0][0]\n[out#0/mp4 @ 00000279aae0ab40] Codec AVOption b:a (set bitrate (in bits/s)) has not been used for any stream. The most likely reason is either wrong type (e.g. a video option with no video streams) or that it is a private option of some decoder which was not actually used for any stream.\nStream mapping:\n  Stream #0:0 -> #0:0 (h264 (native) -> hevc (libx265))\nPress [q] to stop, [?] for help\n[libx265 @ 00000279aba304c0] Unknown option: \"aq-mode.\nx265 [info]: HEVC encoder version 4.1+190-8f11c33ac\nx265 [info]: build info [Windows][GCC 15.1.0][64 bit] 10bit\nx265 [info]: using cpu capabilities: MMX2 SSE2Fast LZCNT SSSE3 SSE4.2 AVX FMA3 BMI2 AVX2\nx265 [info]: Main 10 profile, Level-4.1 (Main tier)\nx265 [info]: Thread pool created using 12 threads\nx265 [info]: Slices                              : 1\nx265 [info]: frame threads / pool features       : 3 / wpp(17 rows)\nx265 [info]: Coding QT: max CU size, min CU size : 64 / 8\nx265 [info]: Residual QT: max TU size, max depth : 32 / 1 inter / 1 intra\nx265 [info]: ME / range / subpel / merge         : star / 57 / 3 / 3\nx265 [info]: Keyframe min / max / scenecut / bias  : 25 / 250 / 40 / 5.00 \nx265 [info]: Lookahead / bframes / badapt        : 25 / 4 / 2\nx265 [info]: b-pyramid / weightp / weightb       : 1 / 1 / 0\nx265 [info]: References / ref-limit  cu / depth  : 4 / on / on\nx265 [info]: AQ: mode / str / qg-size / cu-tree  : 2 / 1.0 / 32 / 1\nx265 [info]: Rate Control / qCompress            : ABR-8000 kbps / 0.60\nx265 [info]: VBV/HRD buffer / max-rate / init    : 8000 / 8000 / 0.750\nx265 [info]: tools: rect limit-modes rd=4 psy-rd=2.00 rdoq=2 psy-rdoq=1.00\nx265 [info]: tools: rskip mode=1 signhide tmvp strong-intra-smoothing lslices=4\nx265 [info]: tools: deblock sao dhdr10-info\nOutput #0, mp4, to 'C:\\Users\\Peter\\Desktop\\stuff\\MIUN\\quantitative_research\\video_compression\\compressed_videos\\BVI-HD\\hevc\\8\\BricksLeaves_1920x1080_60fps_hevc.mp4':\n  Metadata:\n    major_brand     : isom\n    minor_version   : 512\n    compatible_brands: isomiso2avc1mp41\n    encoder         : Lavf62.3.100\n  Stream #0:0(und): Video: hevc (hev1 / 0x31766568), yuv420p10le(tv, progressive), 1920x1080, q=2-31, 8000 kb/s, 60 fps, 15360 tbn (default)\n    Metadata:\n      encoder         : Lavc62.11.100 libx265\n      handler_name    : VideoHandler\n      vendor_id       : [0][0][0][0]\n    Side data:\n      cpb: bitrate max/min/avg: 8000000/0/8000000 buffer size: 8000000 vbv_delay: N/A\nframe=    0 fps=0.0 q=0.0 size=       0KiB time=N/A bitrate=N/A speed=N/A elapsed=0:00:01.05    \nframe=    0 fps=0.0 q=0.0 size=       0KiB time=N/A bitrate=N/A speed=N/A elapsed=0:00:01.61    \nframe=    0 fps=0.0 q=0.0 size=       0KiB time=N/A bitrate=N/A speed=N/A elapsed=0:00:02.14    \nframe=    0 fps=0.0 q=0.0 size=       0KiB time=N/A bitrate=N/A speed=N/A elapsed=0:00:02.66    \nframe=    0 fps=0.0 q=0.0 size=       0KiB time=N/A bitrate=N/A speed=N/A elapsed=0:00:03.20    \nframe=    0 fps=0.0 q=0.0 size=       0KiB time=N/A bitrate=N/A speed=N/A elapsed=0:00:03.74    \nframe=    0 fps=0.0 q=0.0 size=       0KiB time=N/A bitrate=N/A speed=N/A elapsed=0:00:04.25    \nframe=    0 fps=0.0 q=0.0 size=       0KiB time=N/A bitrate=N/A speed=N/A elapsed=0:00:04.76    \nframe=    0 fps=0.0 q=0.0 size=       0KiB time=N/A bitrate=N/A speed=N/A elapsed=0:00:05.28    \nframe=    0 fps=0.0 q=0.0 size=       0KiB time=N/A bitrate=N/A speed=N/A elapsed=0:00:05.79    \nframe=    0 fps=0.0 q=0.0 size=       0KiB time=N/A bitrate=N/A speed=N/A elapsed=0:00:06.34    \nframe=    0 fps=0.0 q=0.0 size=       0KiB time=N/A bitrate=N/A speed=N/A elapsed=0:00:06.88    \nframe=    0 fps=0.0 q=0.0 size=       0KiB time=N/A bitrate=N/A speed=N/A elapsed=0:00:07.40    \nframe=    0 fps=0.0 q=0.0 size=       0KiB time=N/A bitrate=N/A speed=N/A elapsed=0:00:07.93    \nframe=    0 fps=0.0 q=0.0 size=       0KiB time=N/A bitrate=N/A speed=N/A elapsed=0:00:08.46    \nframe=    1 fps=0.1 q=32.0 size=       0KiB time=-00:00:00.01 bitrate=N/A speed=N/A elapsed=0:00:09.00    \nframe=    2 fps=0.2 q=40.7 size=       0KiB time=00:00:00.00 bitrate=N/A speed=   0x elapsed=0:00:09.54    \nframe=    3 fps=0.3 q=46.3 size=       0KiB time=00:00:00.01 bitrate=  21.1kbits/s speed=0.00165x elapsed=0:00:10.09    \nframe=    4 fps=0.4 q=44.3 size=       0KiB time=00:00:00.03 bitrate=  10.6kbits/s speed=0.00314x elapsed=0:00:10.61    \nframe=    5 fps=0.4 q=42.1 size=       0KiB time=00:00:00.05 bitrate=   7.0kbits/s speed=0.00449x elapsed=0:00:11.14    \nframe=    5 fps=0.4 q=42.1 size=       0KiB time=00:00:00.05 bitrate=   7.0kbits/s speed=0.00428x elapsed=0:00:11.68    \nframe=    7 fps=0.6 q=34.5 size=       0KiB time=00:00:00.06 bitrate=   5.3kbits/s speed=0.00545x elapsed=0:00:12.24    \nframe=    8 fps=0.6 q=37.7 size=       0KiB time=00:00:00.10 bitrate=   3.5kbits/s speed=0.00783x elapsed=0:00:12.76    \nframe=    8 fps=0.6 q=37.7 size=       0KiB time=00:00:00.10 bitrate=   3.5kbits/s speed=0.00753x elapsed=0:00:13.28    \nframe=    9 fps=0.7 q=38.4 size=       0KiB time=00:00:00.11 bitrate=   3.0kbits/s speed=0.00845x elapsed=0:00:13.80    \nframe=    9 fps=0.6 q=38.4 size=       0KiB time=00:00:00.11 bitrate=   3.0kbits/s speed=0.00813x elapsed=0:00:14.34    \nframe=   10 fps=0.7 q=38.0 size=       0KiB time=00:00:00.13 bitrate=   2.6kbits/s speed=0.00897x elapsed=0:00:14.86    \nframe=   10 fps=0.6 q=38.0 size=       0KiB time=00:00:00.13 bitrate=   2.6kbits/s speed=0.00866x elapsed=0:00:15.38    \nframe=   10 fps=0.6 q=38.0 size=       0KiB time=00:00:00.13 bitrate=   2.6kbits/s speed=0.00837x elapsed=0:00:15.92    \nframe=   11 fps=0.7 q=37.5 size=       0KiB time=00:00:00.15 bitrate=   2.3kbits/s speed=0.00911x elapsed=0:00:16.46    \nframe=   12 fps=0.7 q=30.7 size=       0KiB time=00:00:00.16 bitrate=   2.1kbits/s speed=0.00982x elapsed=0:00:16.96    \nframe=   13 fps=0.7 q=37.6 size=     256KiB time=00:00:00.18 bitrate=11441.0kbits/s speed=0.0105x elapsed=0:00:17.49    \nframe=   13 fps=0.7 q=37.6 size=     256KiB time=00:00:00.18 bitrate=11441.0kbits/s speed=0.0102x elapsed=0:00:18.03    \nframe=   14 fps=0.8 q=37.7 size=     256KiB time=00:00:00.20 bitrate=10487.5kbits/s speed=0.0108x elapsed=0:00:18.56    \nframe=   14 fps=0.7 q=37.7 size=     256KiB time=00:00:00.20 bitrate=10487.5kbits/s speed=0.0105x elapsed=0:00:19.09    \nframe=   15 fps=0.8 q=38.4 size=     256KiB time=00:00:00.21 bitrate=9680.8kbits/s speed=0.011x elapsed=0:00:19.62    \nframe=   16 fps=0.8 q=38.5 size=     256KiB time=00:00:00.23 bitrate=8989.3kbits/s speed=0.0116x elapsed=0:00:20.16    \nframe=   16 fps=0.8 q=38.5 size=     256KiB time=00:00:00.23 bitrate=8989.3kbits/s speed=0.0112x elapsed=0:00:20.78    \nframe=   16 fps=0.7 q=38.5 size=     256KiB time=00:00:00.23 bitrate=8989.3kbits/s speed=0.0109x elapsed=0:00:21.35    \nframe=   16 fps=0.7 q=38.5 size=     256KiB time=00:00:00.23 bitrate=8989.3kbits/s speed=0.0106x elapsed=0:00:21.90    \nframe=   17 fps=0.8 q=30.6 size=     256KiB time=00:00:00.25 bitrate=8390.0kbits/s speed=0.0111x elapsed=0:00:22.48    \nframe=   17 fps=0.7 q=30.6 size=     256KiB time=00:00:00.25 bitrate=8390.0kbits/s speed=0.0109x elapsed=0:00:23.00    \nframe=   17 fps=0.7 q=30.6 size=     256KiB time=00:00:00.25 bitrate=8390.0kbits/s speed=0.0106x elapsed=0:00:23.52    \nframe=   17 fps=0.7 q=30.6 size=     256KiB time=00:00:00.25 bitrate=8390.0kbits/s speed=0.0104x elapsed=0:00:24.05    \nframe=   17 fps=0.7 q=30.6 size=     256KiB time=00:00:00.25 bitrate=8390.0kbits/s speed=0.0102x elapsed=0:00:24.61    \nframe=   18 fps=0.7 q=37.4 size=     256KiB time=00:00:00.26 bitrate=7865.6kbits/s speed=0.0106x elapsed=0:00:25.16    \nframe=   18 fps=0.7 q=37.4 size=     256KiB time=00:00:00.26 bitrate=7865.6kbits/s speed=0.0104x elapsed=0:00:25.69    \nframe=   19 fps=0.7 q=38.4 size=     256KiB time=00:00:00.28 bitrate=7403.0kbits/s speed=0.0108x elapsed=0:00:26.23    \nframe=   19 fps=0.7 q=38.4 size=     256KiB time=00:00:00.28 bitrate=7403.0kbits/s speed=0.0106x elapsed=0:00:26.76    \nframe=   20 fps=0.7 q=37.7 size=     256KiB time=00:00:00.30 bitrate=6991.7kbits/s speed=0.011x elapsed=0:00:27.28    \nframe=   20 fps=0.7 q=37.7 size=     256KiB time=00:00:00.30 bitrate=6991.7kbits/s speed=0.0108x elapsed=0:00:27.84    \nframe=   20 fps=0.7 q=37.7 size=     256KiB time=00:00:00.30 bitrate=6991.7kbits/s speed=0.0106x elapsed=0:00:28.36    \nframe=   21 fps=0.7 q=37.6 size=     256KiB time=00:00:00.31 bitrate=6623.7kbits/s speed=0.011x elapsed=0:00:28.89    \nframe=   22 fps=0.7 q=29.7 size=     256KiB time=00:00:00.33 bitrate=6292.5kbits/s speed=0.0113x elapsed=0:00:29.42    \nframe=   22 fps=0.7 q=29.7 size=     256KiB time=00:00:00.33 bitrate=6292.5kbits/s speed=0.0111x elapsed=0:00:29.94    \nframe=   24 fps=0.8 q=37.6 size=     256KiB time=00:00:00.36 bitrate=5720.5kbits/s speed=0.012x elapsed=0:00:30.46    \nframe=   24 fps=0.8 q=37.6 size=     256KiB time=00:00:00.36 bitrate=5720.5kbits/s speed=0.0118x elapsed=0:00:30.99    \nframe=   25 fps=0.8 q=37.6 size=     256KiB time=00:00:00.38 bitrate=5471.8kbits/s speed=0.0122x elapsed=0:00:31.51    \nframe=   25 fps=0.8 q=37.6 size=     256KiB time=00:00:00.38 bitrate=5471.8kbits/s speed=0.012x elapsed=0:00:32.04    \nframe=   25 fps=0.8 q=37.6 size=     256KiB time=00:00:00.38 bitrate=5471.8kbits/s speed=0.0118x elapsed=0:00:32.59    \nframe=   26 fps=0.8 q=37.6 size=     256KiB time=00:00:00.40 bitrate=5243.8kbits/s speed=0.0121x elapsed=0:00:33.13    \nframe=   26 fps=0.8 q=37.6 size=     256KiB time=00:00:00.40 bitrate=5243.8kbits/s speed=0.0119x elapsed=0:00:33.67    \nframe=   26 fps=0.8 q=37.6 size=     256KiB time=00:00:00.40 bitrate=5243.8kbits/s speed=0.0117x elapsed=0:00:34.20    \nframe=   27 fps=0.8 q=29.5 size=     256KiB time=00:00:00.41 bitrate=5034.0kbits/s speed=0.012x elapsed=0:00:34.74    \nframe=   27 fps=0.8 q=29.5 size=     256KiB time=00:00:00.41 bitrate=5034.0kbits/s speed=0.0118x elapsed=0:00:35.30    \nframe=   27 fps=0.8 q=29.5 size=     256KiB time=00:00:00.41 bitrate=5034.0kbits/s speed=0.0116x elapsed=0:00:35.83    \nframe=   28 fps=0.8 q=36.5 size=     256KiB time=00:00:00.43 bitrate=4840.4kbits/s speed=0.0119x elapsed=0:00:36.38    \nframe=   28 fps=0.8 q=36.5 size=     256KiB time=00:00:00.43 bitrate=4840.4kbits/s speed=0.0117x elapsed=0:00:36.98    \nframe=   28 fps=0.7 q=36.5 size=     256KiB time=00:00:00.43 bitrate=4840.4kbits/s speed=0.0115x elapsed=0:00:37.56    \nframe=   29 fps=0.8 q=37.6 size=     256KiB time=00:00:00.43 bitrate=4840.4kbits/s speed=0.0114x elapsed=0:00:38.07    \nframe=   29 fps=0.8 q=37.6 size=     256KiB time=00:00:00.45 bitrate=4661.1kbits/s speed=0.0117x elapsed=0:00:38.61    \nframe=   29 fps=0.7 q=37.6 size=     256KiB time=00:00:00.45 bitrate=4661.1kbits/s speed=0.0115x elapsed=0:00:39.15    \nframe=   29 fps=0.7 q=37.6 size=     256KiB time=00:00:00.45 bitrate=4661.1kbits/s speed=0.0113x elapsed=0:00:39.72    \nframe=   29 fps=0.7 q=37.6 size=     256KiB time=00:00:00.45 bitrate=4661.1kbits/s speed=0.0112x elapsed=0:00:40.31    \nframe=   29 fps=0.7 q=37.6 size=     256KiB time=00:00:00.45 bitrate=4661.1kbits/s speed=0.011x elapsed=0:00:40.85    \nframe=   30 fps=0.7 q=37.1 size=     256KiB time=00:00:00.46 bitrate=4494.6kbits/s speed=0.0113x elapsed=0:00:41.41    \nframe=   30 fps=0.7 q=37.1 size=     256KiB time=00:00:00.46 bitrate=4494.6kbits/s speed=0.0111x elapsed=0:00:41.92    \nframe=   31 fps=0.7 q=37.4 size=     256KiB time=00:00:00.48 bitrate=4339.7kbits/s speed=0.0114x elapsed=0:00:42.49    \nframe=   31 fps=0.7 q=37.4 size=     256KiB time=00:00:00.48 bitrate=4339.7kbits/s speed=0.0112x elapsed=0:00:43.05    \nframe=   31 fps=0.7 q=37.4 size=     256KiB time=00:00:00.48 bitrate=4339.7kbits/s speed=0.0111x elapsed=0:00:43.62    \nframe=   32 fps=0.7 q=29.4 size=     256KiB time=00:00:00.48 bitrate=4339.7kbits/s speed=0.0109x elapsed=0:00:44.16    \nframe=   32 fps=0.7 q=29.4 size=     256KiB time=00:00:00.50 bitrate=4195.0kbits/s speed=0.0112x elapsed=0:00:44.73    \nframe=   33 fps=0.7 q=36.1 size=     256KiB time=00:00:00.51 bitrate=4059.7kbits/s speed=0.0114x elapsed=0:00:45.26    \nframe=   33 fps=0.7 q=36.1 size=     256KiB time=00:00:00.51 bitrate=4059.7kbits/s speed=0.0113x elapsed=0:00:45.81    \nframe=   33 fps=0.7 q=36.1 size=     256KiB time=00:00:00.51 bitrate=4059.7kbits/s speed=0.0111x elapsed=0:00:46.35    \nframe=   34 fps=0.7 q=37.3 size=     512KiB time=00:00:00.53 bitrate=7865.0kbits/s speed=0.0114x elapsed=0:00:46.89    \nframe=   34 fps=0.7 q=37.3 size=     512KiB time=00:00:00.53 bitrate=7865.0kbits/s speed=0.0112x elapsed=0:00:47.44    \nframe=   34 fps=0.7 q=37.3 size=     512KiB time=00:00:00.53 bitrate=7865.0kbits/s speed=0.0111x elapsed=0:00:47.99    \nframe=   34 fps=0.7 q=37.3 size=     512KiB time=00:00:00.53 bitrate=7865.0kbits/s speed=0.011x elapsed=0:00:48.52    \nframe=   34 fps=0.7 q=37.3 size=     512KiB time=00:00:00.53 bitrate=7865.0kbits/s speed=0.0109x elapsed=0:00:49.10    \nframe=   35 fps=0.7 q=36.5 size=     512KiB time=00:00:00.55 bitrate=7626.6kbits/s speed=0.0111x elapsed=0:00:49.64    \nframe=   35 fps=0.7 q=36.5 size=     512KiB time=00:00:00.55 bitrate=7626.6kbits/s speed=0.011x elapsed=0:00:50.17    \nframe=   35 fps=0.7 q=36.5 size=     512KiB time=00:00:00.55 bitrate=7626.6kbits/s speed=0.0108x elapsed=0:00:50.75    \nframe=   35 fps=0.7 q=36.5 size=     512KiB time=00:00:00.55 bitrate=7626.6kbits/s speed=0.0107x elapsed=0:00:51.30    \nframe=   35 fps=0.7 q=36.5 size=     512KiB time=00:00:00.55 bitrate=7626.6kbits/s speed=0.0106x elapsed=0:00:51.84    \nframe=   35 fps=0.7 q=36.5 size=     512KiB time=00:00:00.55 bitrate=7626.6kbits/s speed=0.0105x elapsed=0:00:52.40    \nframe=   35 fps=0.7 q=36.5 size=     512KiB time=00:00:00.55 bitrate=7626.6kbits/s speed=0.0104x elapsed=0:00:52.96    \nframe=   35 fps=0.7 q=36.5 size=     512KiB time=00:00:00.55 bitrate=7626.6kbits/s speed=0.0103x elapsed=0:00:53.49    \nframe=   35 fps=0.6 q=36.5 size=     512KiB time=00:00:00.55 bitrate=7626.6kbits/s speed=0.0102x elapsed=0:00:54.04    \nframe=   36 fps=0.7 q=36.6 size=     512KiB time=00:00:00.56 bitrate=7402.3kbits/s speed=0.0104x elapsed=0:00:54.55    \nframe=   36 fps=0.7 q=36.6 size=     512KiB time=00:00:00.56 bitrate=7402.3kbits/s speed=0.0103x elapsed=0:00:55.08    \nframe=   37 fps=0.7 q=29.3 size=     512KiB time=00:00:00.58 bitrate=7190.8kbits/s speed=0.0105x elapsed=0:00:55.63    \nframe=   37 fps=0.7 q=29.3 size=     512KiB time=00:00:00.58 bitrate=7190.8kbits/s speed=0.0104x elapsed=0:00:56.20    \nframe=   37 fps=0.7 q=29.3 size=     512KiB time=00:00:00.58 bitrate=7190.8kbits/s speed=0.0103x elapsed=0:00:56.77    \nframe=   37 fps=0.6 q=29.3 size=     512KiB time=00:00:00.58 bitrate=7190.8kbits/s speed=0.0102x elapsed=0:00:57.31    \nframe=   37 fps=0.6 q=29.3 size=     512KiB time=00:00:00.58 bitrate=7190.8kbits/s speed=0.0101x elapsed=0:00:57.85    \nframe=   38 fps=0.7 q=35.7 size=     512KiB time=00:00:00.60 bitrate=6991.1kbits/s speed=0.0103x elapsed=0:00:58.43    \nframe=   38 fps=0.6 q=35.7 size=     512KiB time=00:00:00.60 bitrate=6991.1kbits/s speed=0.0102x elapsed=0:00:58.97    \nframe=   38 fps=0.6 q=35.7 size=     512KiB time=00:00:00.60 bitrate=6991.1kbits/s speed=0.0101x elapsed=0:00:59.52    \nframe=   38 fps=0.6 q=35.7 size=     512KiB time=00:00:00.60 bitrate=6991.1kbits/s speed=0.00999x elapsed=0:01:00.08    \nframe=   39 fps=0.6 q=36.8 size=     512KiB time=00:00:00.61 bitrate=6802.1kbits/s speed=0.0102x elapsed=0:01:00.63    \nframe=   39 fps=0.6 q=36.8 size=     512KiB time=00:00:00.61 bitrate=6802.1kbits/s speed=0.0101x elapsed=0:01:01.19    \nframe=   40 fps=0.6 q=36.1 size=     512KiB time=00:00:00.63 bitrate=6623.1kbits/s speed=0.0103x elapsed=0:01:01.72    \nframe=   40 fps=0.6 q=36.1 size=     512KiB time=00:00:00.63 bitrate=6623.1kbits/s speed=0.0102x elapsed=0:01:02.28    \nframe=   40 fps=0.6 q=36.1 size=     512KiB time=00:00:00.63 bitrate=6623.1kbits/s speed=0.0101x elapsed=0:01:02.81    \nframe=   40 fps=0.6 q=36.1 size=     512KiB time=00:00:00.63 bitrate=6623.1kbits/s speed=0.01x elapsed=0:01:03.35    \nframe=   40 fps=0.6 q=36.1 size=     512KiB time=00:00:00.63 bitrate=6623.1kbits/s speed=0.00991x elapsed=0:01:03.87    \nframe=   40 fps=0.6 q=36.1 size=     512KiB time=00:00:00.63 bitrate=6623.1kbits/s speed=0.00982x elapsed=0:01:04.50    \nframe=   40 fps=0.6 q=36.1 size=     512KiB time=00:00:00.63 bitrate=6623.1kbits/s speed=0.00974x elapsed=0:01:05.05    \nframe=   41 fps=0.6 q=36.1 size=     512KiB time=00:00:00.65 bitrate=6453.3kbits/s speed=0.0099x elapsed=0:01:05.68    \nframe=   41 fps=0.6 q=36.1 size=     512KiB time=00:00:00.65 bitrate=6453.3kbits/s speed=0.0098x elapsed=0:01:06.29    \nframe=   41 fps=0.6 q=36.1 size=     512KiB time=00:00:00.65 bitrate=6453.3kbits/s speed=0.00972x elapsed=0:01:06.89    \nframe=   41 fps=0.6 q=36.1 size=     512KiB time=00:00:00.65 bitrate=6453.3kbits/s speed=0.00964x elapsed=0:01:07.42    \nframe=   42 fps=0.6 q=28.9 size=     512KiB time=00:00:00.66 bitrate=6292.0kbits/s speed=0.00981x elapsed=0:01:07.95    \nframe=   42 fps=0.6 q=28.9 size=     512KiB time=00:00:00.66 bitrate=6292.0kbits/s speed=0.00974x elapsed=0:01:08.47    \nframe=   42 fps=0.6 q=28.9 size=     512KiB time=00:00:00.66 bitrate=6292.0kbits/s speed=0.00966x elapsed=0:01:09.00    \nframe=   43 fps=0.6 q=35.4 size=     512KiB time=00:00:00.68 bitrate=6138.5kbits/s speed=0.00983x elapsed=0:01:09.52    \nframe=   44 fps=0.6 q=36.4 size=     512KiB time=00:00:00.70 bitrate=5992.4kbits/s speed=0.00999x elapsed=0:01:10.03    \nframe=   44 fps=0.6 q=36.4 size=     512KiB time=00:00:00.70 bitrate=5992.4kbits/s speed=0.00992x elapsed=0:01:10.56    \nframe=   44 fps=0.6 q=36.4 size=     512KiB time=00:00:00.70 bitrate=5992.4kbits/s speed=0.00985x elapsed=0:01:11.09    \nframe=   45 fps=0.6 q=35.9 size=     512KiB time=00:00:00.71 bitrate=5853.0kbits/s speed=0.01x elapsed=0:01:11.60    \nframe=   45 fps=0.6 q=35.9 size=     512KiB time=00:00:00.71 bitrate=5853.0kbits/s speed=0.00993x elapsed=0:01:12.14    \nframe=   46 fps=0.6 q=35.9 size=     512KiB time=00:00:00.73 bitrate=5720.0kbits/s speed=0.0101x elapsed=0:01:12.66    \nframe=   46 fps=0.6 q=35.9 size=     512KiB time=00:00:00.73 bitrate=5720.0kbits/s speed=0.01x elapsed=0:01:13.18    \nframe=   47 fps=0.6 q=28.9 size=     512KiB time=00:00:00.75 bitrate=5592.9kbits/s speed=0.0102x elapsed=0:01:13.71    \nframe=   47 fps=0.6 q=28.9 size=     512KiB time=00:00:00.75 bitrate=5592.9kbits/s speed=0.0101x elapsed=0:01:14.23    \nframe=   47 fps=0.6 q=28.9 size=     512KiB time=00:00:00.75 bitrate=5592.9kbits/s speed=0.01x elapsed=0:01:14.76    \nframe=   48 fps=0.6 q=35.2 size=     512KiB time=00:00:00.76 bitrate=5471.3kbits/s speed=0.0102x elapsed=0:01:15.28    \nframe=   49 fps=0.6 q=36.2 size=     512KiB time=00:00:00.78 bitrate=5354.9kbits/s speed=0.0103x elapsed=0:01:15.80    \nframe=   49 fps=0.6 q=36.2 size=     512KiB time=00:00:00.78 bitrate=5354.9kbits/s speed=0.0103x elapsed=0:01:16.32    \nframe=   50 fps=0.7 q=35.7 size=     512KiB time=00:00:00.80 bitrate=5243.3kbits/s speed=0.0104x elapsed=0:01:16.84    \nframe=   50 fps=0.6 q=35.7 size=     512KiB time=00:00:00.80 bitrate=5243.3kbits/s speed=0.0103x elapsed=0:01:17.36    \nframe=   50 fps=0.6 q=35.7 size=     512KiB time=00:00:00.80 bitrate=5243.3kbits/s speed=0.0103x elapsed=0:01:17.89    \nframe=   51 fps=0.6 q=35.9 size=     512KiB time=00:00:00.81 bitrate=5136.3kbits/s speed=0.0104x elapsed=0:01:18.46    \nframe=   51 fps=0.6 q=35.9 size=     512KiB time=00:00:00.81 bitrate=5136.3kbits/s speed=0.0103x elapsed=0:01:18.99    \nframe=   52 fps=0.7 q=28.7 size=     512KiB time=00:00:00.83 bitrate=5033.6kbits/s speed=0.0105x elapsed=0:01:19.51    \nframe=   52 fps=0.6 q=28.7 size=     512KiB time=00:00:00.83 bitrate=5033.6kbits/s speed=0.0104x elapsed=0:01:20.03    \nframe=   53 fps=0.7 q=35.1 size=     768KiB time=00:00:00.85 bitrate=7402.1kbits/s speed=0.0106x elapsed=0:01:20.55    \nframe=   53 fps=0.7 q=35.1 size=     768KiB time=00:00:00.85 bitrate=7402.1kbits/s speed=0.0105x elapsed=0:01:21.08    \nframe=   54 fps=0.7 q=36.3 size=     768KiB time=00:00:00.86 bitrate=7259.8kbits/s speed=0.0106x elapsed=0:01:21.62    \nframe=   55 fps=0.7 q=35.9 size=     768KiB time=00:00:00.88 bitrate=7122.8kbits/s speed=0.0108x elapsed=0:01:22.16    \nframe=   55 fps=0.7 q=35.9 size=     768KiB time=00:00:00.88 bitrate=7122.8kbits/s speed=0.0107x elapsed=0:01:22.70    \nframe=   55 fps=0.7 q=35.9 size=     768KiB time=00:00:00.88 bitrate=7122.8kbits/s speed=0.0106x elapsed=0:01:23.23    \nframe=   55 fps=0.7 q=35.9 size=     768KiB time=00:00:00.88 bitrate=7122.8kbits/s speed=0.0105x elapsed=0:01:23.79    \nframe=   56 fps=0.7 q=35.9 size=     768KiB time=00:00:00.90 bitrate=6990.9kbits/s speed=0.0107x elapsed=0:01:24.32    \nframe=   56 fps=0.7 q=35.9 size=     768KiB time=00:00:00.90 bitrate=6990.9kbits/s speed=0.0106x elapsed=0:01:24.85    \nframe=   57 fps=0.7 q=29.1 size=     768KiB time=00:00:00.91 bitrate=6863.8kbits/s speed=0.0107x elapsed=0:01:25.38    \nframe=   57 fps=0.7 q=29.1 size=     768KiB time=00:00:00.91 bitrate=6863.8kbits/s speed=0.0107x elapsed=0:01:25.91    \nframe=   58 fps=0.7 q=35.0 size=     768KiB time=00:00:00.93 bitrate=6741.2kbits/s speed=0.0108x elapsed=0:01:26.43    \nframe=   58 fps=0.7 q=35.0 size=     768KiB time=00:00:00.93 bitrate=6741.2kbits/s speed=0.0107x elapsed=0:01:26.98    \nframe=   59 fps=0.7 q=36.1 size=     768KiB time=00:00:00.95 bitrate=6623.0kbits/s speed=0.0109x elapsed=0:01:27.51    \nframe=   59 fps=0.7 q=36.1 size=     768KiB time=00:00:00.95 bitrate=6623.0kbits/s speed=0.0108x elapsed=0:01:28.03    \nframe=   59 fps=0.7 q=36.1 size=     768KiB time=00:00:00.95 bitrate=6623.0kbits/s speed=0.0107x elapsed=0:01:28.57    \nframe=   60 fps=0.7 q=35.6 size=     768KiB time=00:00:00.96 bitrate=6508.8kbits/s speed=0.0108x elapsed=0:01:29.11    \nframe=   60 fps=0.7 q=35.6 size=     768KiB time=00:00:00.96 bitrate=6508.8kbits/s speed=0.0108x elapsed=0:01:29.69    \nframe=   60 fps=0.7 q=35.6 size=     768KiB time=00:00:00.96 bitrate=6508.8kbits/s speed=0.0107x elapsed=0:01:30.34    \nframe=   60 fps=0.7 q=35.6 size=     768KiB time=00:00:00.96 bitrate=6508.8kbits/s speed=0.0106x elapsed=0:01:30.90    \nframe=   60 fps=0.7 q=35.6 size=     768KiB time=00:00:00.96 bitrate=6508.8kbits/s speed=0.0106x elapsed=0:01:31.51    \nframe=   61 fps=0.7 q=35.7 size=     768KiB time=00:00:00.98 bitrate=6398.5kbits/s speed=0.0107x elapsed=0:01:32.10    \nframe=   61 fps=0.7 q=35.7 size=     768KiB time=00:00:00.98 bitrate=6398.5kbits/s speed=0.0106x elapsed=0:01:32.63    \nframe=   61 fps=0.7 q=35.7 size=     768KiB time=00:00:00.98 bitrate=6398.5kbits/s speed=0.0106x elapsed=0:01:33.14    \nframe=   61 fps=0.7 q=35.7 size=     768KiB time=00:00:00.98 bitrate=6398.5kbits/s speed=0.0105x elapsed=0:01:33.68    \nframe=   62 fps=0.7 q=29.1 size=     768KiB time=00:00:01.00 bitrate=6291.8kbits/s speed=0.0106x elapsed=0:01:34.21    \nframe=   62 fps=0.7 q=29.1 size=     768KiB time=00:00:01.00 bitrate=6291.8kbits/s speed=0.0106x elapsed=0:01:34.76    \nframe=   62 fps=0.7 q=29.1 size=     768KiB time=00:00:01.00 bitrate=6291.8kbits/s speed=0.0105x elapsed=0:01:35.29    \nframe=   62 fps=0.6 q=29.1 size=     768KiB time=00:00:01.00 bitrate=6291.8kbits/s speed=0.0104x elapsed=0:01:35.85    \nframe=   63 fps=0.7 q=34.7 size=     768KiB time=00:00:01.01 bitrate=6188.7kbits/s speed=0.0105x elapsed=0:01:36.41    \nframe=   64 fps=0.7 q=35.7 size=     768KiB time=00:00:01.03 bitrate=6088.8kbits/s speed=0.0107x elapsed=0:01:36.94    \nframe=   64 fps=0.7 q=35.7 size=     768KiB time=00:00:01.03 bitrate=6088.8kbits/s speed=0.0106x elapsed=0:01:37.45    \nframe=   64 fps=0.7 q=35.7 size=     768KiB time=00:00:01.03 bitrate=6088.8kbits/s speed=0.0105x elapsed=0:01:37.97    \nframe=   64 fps=0.6 q=35.7 size=     768KiB time=00:00:01.03 bitrate=6088.8kbits/s speed=0.0105x elapsed=0:01:38.56    \nframe=   64 fps=0.6 q=35.7 size=     768KiB time=00:00:01.03 bitrate=6088.8kbits/s speed=0.0104x elapsed=0:01:39.11    \nframe=   64 fps=0.6 q=35.7 size=     768KiB time=00:00:01.03 bitrate=6088.8kbits/s speed=0.0104x elapsed=0:01:39.63    \nframe=   64 fps=0.6 q=35.7 size=     768KiB time=00:00:01.03 bitrate=6088.8kbits/s speed=0.0103x elapsed=0:01:40.15    \nframe=   65 fps=0.6 q=35.7 size=     768KiB time=00:00:01.05 bitrate=5992.2kbits/s speed=0.0104x elapsed=0:01:40.67    \nframe=   65 fps=0.6 q=35.7 size=     768KiB time=00:00:01.05 bitrate=5992.2kbits/s speed=0.0104x elapsed=0:01:41.22    \nframe=   66 fps=0.6 q=35.9 size=     768KiB time=00:00:01.06 bitrate=5898.6kbits/s speed=0.0105x elapsed=0:01:41.76    \nframe=   66 fps=0.6 q=35.9 size=     768KiB time=00:00:01.06 bitrate=5898.6kbits/s speed=0.0104x elapsed=0:01:42.27    \nframe=   67 fps=0.7 q=28.8 size=     768KiB time=00:00:01.06 bitrate=5898.6kbits/s speed=0.0104x elapsed=0:01:42.85    \nframe=   67 fps=0.6 q=28.8 size=     768KiB time=00:00:01.08 bitrate=5807.8kbits/s speed=0.0105x elapsed=0:01:43.43    \nframe=   67 fps=0.6 q=28.8 size=     768KiB time=00:00:01.08 bitrate=5807.8kbits/s speed=0.0104x elapsed=0:01:43.99    \nframe=   67 fps=0.6 q=28.8 size=     768KiB time=00:00:01.08 bitrate=5807.8kbits/s speed=0.0104x elapsed=0:01:44.59    \nframe=   68 fps=0.6 q=34.7 size=    1024KiB time=00:00:01.10 bitrate=7626.3kbits/s speed=0.0105x elapsed=0:01:45.16    \nframe=   68 fps=0.6 q=34.7 size=    1024KiB time=00:00:01.10 bitrate=7626.3kbits/s speed=0.0104x elapsed=0:01:45.74    \nframe=   68 fps=0.6 q=34.7 size=    1024KiB time=00:00:01.10 bitrate=7626.3kbits/s speed=0.0103x elapsed=0:01:46.29    \nframe=   68 fps=0.6 q=34.7 size=    1024KiB time=00:00:01.10 bitrate=7626.3kbits/s speed=0.0103x elapsed=0:01:46.82    \nframe=   69 fps=0.6 q=35.8 size=    1024KiB time=00:00:01.11 bitrate=7512.5kbits/s speed=0.0104x elapsed=0:01:47.34    \nframe=   69 fps=0.6 q=35.8 size=    1024KiB time=00:00:01.11 bitrate=7512.5kbits/s speed=0.0104x elapsed=0:01:47.87    \nframe=   69 fps=0.6 q=35.8 size=    1024KiB time=00:00:01.11 bitrate=7512.5kbits/s speed=0.0103x elapsed=0:01:48.41    \nframe=   70 fps=0.6 q=35.6 size=    1024KiB time=00:00:01.13 bitrate=7402.0kbits/s speed=0.0104x elapsed=0:01:48.95    \nframe=   70 fps=0.6 q=35.6 size=    1024KiB time=00:00:01.13 bitrate=7402.0kbits/s speed=0.0104x elapsed=0:01:49.47    \nframe=   71 fps=0.6 q=35.9 size=    1024KiB time=00:00:01.15 bitrate=7294.7kbits/s speed=0.0105x elapsed=0:01:49.98    \nframe=   71 fps=0.6 q=35.9 size=    1024KiB time=00:00:01.15 bitrate=7294.7kbits/s speed=0.0104x elapsed=0:01:50.50    \nframe=   73 fps=0.7 q=34.6 size=    1024KiB time=00:00:01.18 bitrate=7089.3kbits/s speed=0.0107x elapsed=0:01:51.03    \nframe=   73 fps=0.7 q=34.6 size=    1024KiB time=00:00:01.18 bitrate=7089.3kbits/s speed=0.0106x elapsed=0:01:51.54    \nframe=   73 fps=0.7 q=34.6 size=    1024KiB time=00:00:01.18 bitrate=7089.3kbits/s speed=0.0106x elapsed=0:01:52.07    \nframe=   74 fps=0.7 q=35.8 size=    1024KiB time=00:00:01.20 bitrate=6990.8kbits/s speed=0.0107x elapsed=0:01:52.60    \nframe=   74 fps=0.7 q=35.8 size=    1024KiB time=00:00:01.20 bitrate=6990.8kbits/s speed=0.0106x elapsed=0:01:53.13    \nframe=   74 fps=0.7 q=35.8 size=    1024KiB time=00:00:01.20 bitrate=6990.8kbits/s speed=0.0106x elapsed=0:01:53.65    \nframe=   74 fps=0.6 q=35.8 size=    1024KiB time=00:00:01.20 bitrate=6990.8kbits/s speed=0.0105x elapsed=0:01:54.19    \nframe=   75 fps=0.7 q=35.5 size=    1024KiB time=00:00:01.21 bitrate=6895.0kbits/s speed=0.0106x elapsed=0:01:54.73    \nframe=   76 fps=0.7 q=35.6 size=    1024KiB time=00:00:01.23 bitrate=6801.9kbits/s speed=0.0107x elapsed=0:01:55.25    \nframe=   77 fps=0.7 q=28.3 size=    1024KiB time=00:00:01.25 bitrate=6711.2kbits/s speed=0.0108x elapsed=0:01:55.79    \nframe=   77 fps=0.7 q=28.3 size=    1024KiB time=00:00:01.25 bitrate=6711.2kbits/s speed=0.0107x elapsed=0:01:56.33    \nframe=   77 fps=0.7 q=28.3 size=    1024KiB time=00:00:01.25 bitrate=6711.2kbits/s speed=0.0107x elapsed=0:01:56.84    \nframe=   78 fps=0.7 q=34.7 size=    1024KiB time=00:00:01.26 bitrate=6622.9kbits/s speed=0.0108x elapsed=0:01:57.40    \nframe=   79 fps=0.7 q=35.7 size=    1024KiB time=00:00:01.28 bitrate=6536.9kbits/s speed=0.0109x elapsed=0:01:57.93    \nframe=   79 fps=0.7 q=35.7 size=    1024KiB time=00:00:01.28 bitrate=6536.9kbits/s speed=0.0108x elapsed=0:01:58.45    \nframe=   79 fps=0.7 q=35.7 size=    1024KiB time=00:00:01.28 bitrate=6536.9kbits/s speed=0.0108x elapsed=0:01:58.97    \nframe=   79 fps=0.7 q=35.7 size=    1024KiB time=00:00:01.28 bitrate=6536.9kbits/s speed=0.0107x elapsed=0:01:59.52    \nframe=   80 fps=0.7 q=35.5 size=    1024KiB time=00:00:01.30 bitrate=6453.0kbits/s speed=0.0108x elapsed=0:02:00.04    \nframe=   80 fps=0.7 q=35.5 size=    1024KiB time=00:00:01.30 bitrate=6453.0kbits/s speed=0.0108x elapsed=0:02:00.56    \nframe=   81 fps=0.7 q=35.6 size=    1024KiB time=00:00:01.31 bitrate=6371.4kbits/s speed=0.0109x elapsed=0:02:01.09    \nframe=   81 fps=0.7 q=35.6 size=    1024KiB time=00:00:01.31 bitrate=6371.4kbits/s speed=0.0108x elapsed=0:02:01.63    \nframe=   82 fps=0.7 q=28.5 size=    1024KiB time=00:00:01.33 bitrate=6291.7kbits/s speed=0.0109x elapsed=0:02:02.17    \nframe=   83 fps=0.7 q=34.6 size=    1024KiB time=00:00:01.35 bitrate=6214.0kbits/s speed=0.011x elapsed=0:02:02.73    \nframe=   83 fps=0.7 q=34.6 size=    1024KiB time=00:00:01.35 bitrate=6214.0kbits/s speed=0.011x elapsed=0:02:03.27    \nframe=   84 fps=0.7 q=35.7 size=    1280KiB time=00:00:01.36 bitrate=7672.8kbits/s speed=0.011x elapsed=0:02:03.78    \nframe=   84 fps=0.7 q=35.7 size=    1280KiB time=00:00:01.36 bitrate=7672.8kbits/s speed=0.011x elapsed=0:02:04.33    \nframe=   84 fps=0.7 q=35.7 size=    1280KiB time=00:00:01.36 bitrate=7672.8kbits/s speed=0.0109x elapsed=0:02:04.85    \nframe=   85 fps=0.7 q=35.6 size=    1280KiB time=00:00:01.38 bitrate=7580.3kbits/s speed=0.011x elapsed=0:02:05.37    \nframe=   85 fps=0.7 q=35.6 size=    1280KiB time=00:00:01.38 bitrate=7580.3kbits/s speed=0.011x elapsed=0:02:05.90    \nframe=   86 fps=0.7 q=35.7 size=    1280KiB time=00:00:01.40 bitrate=7490.1kbits/s speed=0.0111x elapsed=0:02:06.43    \nframe=   86 fps=0.7 q=35.7 size=    1280KiB time=00:00:01.40 bitrate=7490.1kbits/s speed=0.011x elapsed=0:02:06.95    \nframe=   87 fps=0.7 q=28.3 size=    1280KiB time=00:00:01.41 bitrate=7402.0kbits/s speed=0.0111x elapsed=0:02:07.47    \nframe=   88 fps=0.7 q=34.8 size=    1280KiB time=00:00:01.43 bitrate=7315.9kbits/s speed=0.0112x elapsed=0:02:07.99    \nframe=   88 fps=0.7 q=34.8 size=    1280KiB time=00:00:01.43 bitrate=7315.9kbits/s speed=0.0112x elapsed=0:02:08.50    \nframe=   89 fps=0.7 q=36.0 size=    1280KiB time=00:00:01.45 bitrate=7231.8kbits/s speed=0.0112x elapsed=0:02:09.03    \nframe=   89 fps=0.7 q=36.0 size=    1280KiB time=00:00:01.45 bitrate=7231.8kbits/s speed=0.0112x elapsed=0:02:09.54    \nframe=   89 fps=0.7 q=36.0 size=    1280KiB time=00:00:01.45 bitrate=7231.8kbits/s speed=0.0111x elapsed=0:02:10.06    \nframe=   90 fps=0.7 q=35.8 size=    1280KiB time=00:00:01.46 bitrate=7149.6kbits/s speed=0.0112x elapsed=0:02:10.58    \nframe=   90 fps=0.7 q=35.8 size=    1280KiB time=00:00:01.46 bitrate=7149.6kbits/s speed=0.0112x elapsed=0:02:11.10    \nframe=   91 fps=0.7 q=35.9 size=    1280KiB time=00:00:01.48 bitrate=7069.3kbits/s speed=0.0113x elapsed=0:02:11.62    \nframe=   92 fps=0.7 q=28.8 size=    1280KiB time=00:00:01.50 bitrate=6990.7kbits/s speed=0.0114x elapsed=0:02:12.13    \nframe=   93 fps=0.7 q=34.8 size=    1280KiB time=00:00:01.51 bitrate=6913.9kbits/s speed=0.0114x elapsed=0:02:12.65    \nframe=   93 fps=0.7 q=34.8 size=    1280KiB time=00:00:01.51 bitrate=6913.9kbits/s speed=0.0114x elapsed=0:02:13.20    \nframe=   93 fps=0.7 q=34.8 size=    1280KiB time=00:00:01.51 bitrate=6913.9kbits/s speed=0.0113x elapsed=0:02:13.80    \nframe=   93 fps=0.7 q=34.8 size=    1280KiB time=00:00:01.51 bitrate=6913.9kbits/s speed=0.0113x elapsed=0:02:14.35    \nframe=   93 fps=0.7 q=34.8 size=    1280KiB time=00:00:01.51 bitrate=6913.9kbits/s speed=0.0112x elapsed=0:02:14.86    \nframe=   94 fps=0.7 q=35.9 size=    1280KiB time=00:00:01.53 bitrate=6838.8kbits/s speed=0.0113x elapsed=0:02:15.41    \nframe=   94 fps=0.7 q=35.9 size=    1280KiB time=00:00:01.53 bitrate=6838.8kbits/s speed=0.0113x elapsed=0:02:15.92    \nframe=   95 fps=0.7 q=35.6 size=    1280KiB time=00:00:01.55 bitrate=6765.2kbits/s speed=0.0114x elapsed=0:02:16.45    \nframe=   95 fps=0.7 q=35.6 size=    1280KiB time=00:00:01.55 bitrate=6765.2kbits/s speed=0.0113x elapsed=0:02:16.97    \nframe=   96 fps=0.7 q=35.8 size=    1280KiB time=00:00:01.56 bitrate=6693.3kbits/s speed=0.0114x elapsed=0:02:17.49    \nframe=   96 fps=0.7 q=35.8 size=    1280KiB time=00:00:01.56 bitrate=6693.3kbits/s speed=0.0114x elapsed=0:02:18.00    \nframe=   97 fps=0.7 q=28.8 size=    1280KiB time=00:00:01.58 bitrate=6622.8kbits/s speed=0.0114x elapsed=0:02:18.53    \nframe=   98 fps=0.7 q=34.8 size=    1280KiB time=00:00:01.60 bitrate=6553.8kbits/s speed=0.0115x elapsed=0:02:19.05    \nframe=   98 fps=0.7 q=34.8 size=    1280KiB time=00:00:01.60 bitrate=6553.8kbits/s speed=0.0115x elapsed=0:02:19.61    \nframe=   99 fps=0.7 q=35.9 size=    1536KiB time=00:00:01.61 bitrate=7783.5kbits/s speed=0.0115x elapsed=0:02:20.17    \nframe=   99 fps=0.7 q=35.9 size=    1536KiB time=00:00:01.61 bitrate=7783.5kbits/s speed=0.0115x elapsed=0:02:20.70    \nframe=  100 fps=0.7 q=35.9 size=    1536KiB time=00:00:01.63 bitrate=7704.0kbits/s speed=0.0116x elapsed=0:02:21.22    \nframe=  100 fps=0.7 q=35.9 size=    1536KiB time=00:00:01.63 bitrate=7704.0kbits/s speed=0.0115x elapsed=0:02:21.75    \nframe=  100 fps=0.7 q=35.9 size=    1536KiB time=00:00:01.63 bitrate=7704.0kbits/s speed=0.0115x elapsed=0:02:22.30    \nframe=  101 fps=0.7 q=35.9 size=    1536KiB time=00:00:01.65 bitrate=7626.2kbits/s speed=0.0116x elapsed=0:02:22.82    \nframe=  101 fps=0.7 q=35.9 size=    1536KiB time=00:00:01.65 bitrate=7626.2kbits/s speed=0.0115x elapsed=0:02:23.33    \nframe=  102 fps=0.7 q=28.6 size=    1536KiB time=00:00:01.66 bitrate=7550.0kbits/s speed=0.0116x elapsed=0:02:23.84    \nframe=  102 fps=0.7 q=28.6 size=    1536KiB time=00:00:01.66 bitrate=7550.0kbits/s speed=0.0115x elapsed=0:02:24.35    \nframe=  102 fps=0.7 q=28.6 size=    1536KiB time=00:00:01.66 bitrate=7550.0kbits/s speed=0.0115x elapsed=0:02:24.90    \nframe=  102 fps=0.7 q=28.6 size=    1536KiB time=00:00:01.66 bitrate=7550.0kbits/s speed=0.0115x elapsed=0:02:25.45    \nframe=  102 fps=0.7 q=28.6 size=    1536KiB time=00:00:01.66 bitrate=7550.0kbits/s speed=0.0114x elapsed=0:02:25.99    \nframe=  102 fps=0.7 q=28.6 size=    1536KiB time=00:00:01.66 bitrate=7550.0kbits/s speed=0.0114x elapsed=0:02:26.64    \nframe=  102 fps=0.7 q=28.6 size=    1536KiB time=00:00:01.66 bitrate=7550.0kbits/s speed=0.0113x elapsed=0:02:27.24    \nframe=  103 fps=0.7 q=34.6 size=    1536KiB time=00:00:01.68 bitrate=7475.2kbits/s speed=0.0114x elapsed=0:02:27.78    \nframe=  103 fps=0.7 q=34.6 size=    1536KiB time=00:00:01.68 bitrate=7475.2kbits/s speed=0.0114x elapsed=0:02:28.30    \nframe=  103 fps=0.7 q=34.6 size=    1536KiB time=00:00:01.68 bitrate=7475.2kbits/s speed=0.0113x elapsed=0:02:28.83    \nframe=  104 fps=0.7 q=35.8 size=    1536KiB time=00:00:01.70 bitrate=7401.9kbits/s speed=0.0114x elapsed=0:02:29.42    \nframe=  105 fps=0.7 q=35.7 size=    1536KiB time=00:00:01.71 bitrate=7330.1kbits/s speed=0.0114x elapsed=0:02:29.96    \nframe=  106 fps=0.7 q=35.9 size=    1536KiB time=00:00:01.73 bitrate=7259.6kbits/s speed=0.0115x elapsed=0:02:30.48    \nframe=  106 fps=0.7 q=35.9 size=    1536KiB time=00:00:01.73 bitrate=7259.6kbits/s speed=0.0115x elapsed=0:02:31.00    \nframe=  107 fps=0.7 q=28.9 size=    1536KiB time=00:00:01.75 bitrate=7190.4kbits/s speed=0.0115x elapsed=0:02:31.54    \nframe=  107 fps=0.7 q=28.9 size=    1536KiB time=00:00:01.75 bitrate=7190.4kbits/s speed=0.0115x elapsed=0:02:32.06    \nframe=  108 fps=0.7 q=34.9 size=    1536KiB time=00:00:01.75 bitrate=7190.4kbits/s speed=0.0115x elapsed=0:02:32.58    \nframe=  108 fps=0.7 q=34.9 size=    1536KiB time=00:00:01.76 bitrate=7122.6kbits/s speed=0.0115x elapsed=0:02:33.10    \nframe=  109 fps=0.7 q=36.1 size=    1536KiB time=00:00:01.78 bitrate=7056.0kbits/s speed=0.0116x elapsed=0:02:33.63    \nframe=  109 fps=0.7 q=36.1 size=    1536KiB time=00:00:01.78 bitrate=7056.0kbits/s speed=0.0116x elapsed=0:02:34.16    \nframe=  110 fps=0.7 q=35.9 size=    1536KiB time=00:00:01.80 bitrate=6990.7kbits/s speed=0.0116x elapsed=0:02:34.67    \nframe=  110 fps=0.7 q=35.9 size=    1536KiB time=00:00:01.80 bitrate=6990.7kbits/s speed=0.0116x elapsed=0:02:35.18    \nframe=  111 fps=0.7 q=35.9 size=    1536KiB time=00:00:01.81 bitrate=6926.6kbits/s speed=0.0117x elapsed=0:02:35.70    \nframe=  112 fps=0.7 q=28.7 size=    1536KiB time=00:00:01.83 bitrate=6863.6kbits/s speed=0.0117x elapsed=0:02:36.23    \nframe=  113 fps=0.7 q=34.9 size=    1536KiB time=00:00:01.85 bitrate=6801.8kbits/s speed=0.0118x elapsed=0:02:36.75    \nframe=  114 fps=0.7 q=36.1 size=    1536KiB time=00:00:01.86 bitrate=6741.0kbits/s speed=0.0119x elapsed=0:02:37.26    \nframe=  114 fps=0.7 q=36.1 size=    1536KiB time=00:00:01.86 bitrate=6741.0kbits/s speed=0.0118x elapsed=0:02:37.78    \nframe=  114 fps=0.7 q=36.1 size=    1536KiB time=00:00:01.86 bitrate=6741.0kbits/s speed=0.0118x elapsed=0:02:38.34    \nframe=  114 fps=0.7 q=36.1 size=    1536KiB time=00:00:01.86 bitrate=6741.0kbits/s speed=0.0118x elapsed=0:02:38.86    \nframe=  114 fps=0.7 q=36.1 size=    1536KiB time=00:00:01.86 bitrate=6741.0kbits/s speed=0.0117x elapsed=0:02:39.41    \nframe=  115 fps=0.7 q=35.9 size=    1792KiB time=00:00:01.88 bitrate=7794.9kbits/s speed=0.0118x elapsed=0:02:39.96    \nframe=  115 fps=0.7 q=35.9 size=    1792KiB time=00:00:01.88 bitrate=7794.9kbits/s speed=0.0117x elapsed=0:02:40.48    \nframe=  116 fps=0.7 q=36.0 size=    1792KiB time=00:00:01.90 bitrate=7726.5kbits/s speed=0.0118x elapsed=0:02:41.02    \nframe=  116 fps=0.7 q=36.0 size=    1792KiB time=00:00:01.90 bitrate=7726.5kbits/s speed=0.0118x elapsed=0:02:41.52    \nframe=  117 fps=0.7 q=28.7 size=    1792KiB time=00:00:01.91 bitrate=7659.3kbits/s speed=0.0118x elapsed=0:02:42.04    \nframe=  117 fps=0.7 q=28.7 size=    1792KiB time=00:00:01.91 bitrate=7659.3kbits/s speed=0.0118x elapsed=0:02:42.60    \nframe=  118 fps=0.7 q=35.0 size=    1792KiB time=00:00:01.93 bitrate=7593.3kbits/s speed=0.0119x elapsed=0:02:43.14    \nframe=  118 fps=0.7 q=35.0 size=    1792KiB time=00:00:01.93 bitrate=7593.3kbits/s speed=0.0118x elapsed=0:02:43.66    \nframe=  119 fps=0.7 q=36.1 size=    1792KiB time=00:00:01.95 bitrate=7528.4kbits/s speed=0.0119x elapsed=0:02:44.18    \nframe=  120 fps=0.7 q=36.0 size=    1792KiB time=00:00:01.96 bitrate=7464.6kbits/s speed=0.0119x elapsed=0:02:44.72    \nframe=  120 fps=0.7 q=36.0 size=    1792KiB time=00:00:01.96 bitrate=7464.6kbits/s speed=0.0119x elapsed=0:02:45.23    \nframe=  120 fps=0.7 q=36.0 size=    1792KiB time=00:00:01.96 bitrate=7464.6kbits/s speed=0.0119x elapsed=0:02:45.76    \nframe=  121 fps=0.7 q=35.9 size=    1792KiB time=00:00:01.98 bitrate=7401.9kbits/s speed=0.0119x elapsed=0:02:46.32    \nframe=  121 fps=0.7 q=35.9 size=    1792KiB time=00:00:01.98 bitrate=7401.9kbits/s speed=0.0119x elapsed=0:02:46.84    \nframe=  121 fps=0.7 q=35.9 size=    1792KiB time=00:00:01.98 bitrate=7401.9kbits/s speed=0.0119x elapsed=0:02:47.36    \nframe=  122 fps=0.7 q=28.7 size=    1792KiB time=00:00:02.00 bitrate=7340.2kbits/s speed=0.0119x elapsed=0:02:47.88    \nframe=  124 fps=0.7 q=36.2 size=    1792KiB time=00:00:02.03 bitrate=7219.9kbits/s speed=0.0121x elapsed=0:02:48.40    \nframe=  124 fps=0.7 q=36.2 size=    1792KiB time=00:00:02.03 bitrate=7219.9kbits/s speed=0.012x elapsed=0:02:48.92    \nframe=  124 fps=0.7 q=36.2 size=    1792KiB time=00:00:02.03 bitrate=7219.9kbits/s speed=0.012x elapsed=0:02:49.44    \nframe=  124 fps=0.7 q=36.2 size=    1792KiB time=00:00:02.03 bitrate=7219.9kbits/s speed=0.012x elapsed=0:02:49.98    \nframe=  124 fps=0.7 q=36.2 size=    1792KiB time=00:00:02.03 bitrate=7219.9kbits/s speed=0.0119x elapsed=0:02:50.50    \nframe=  125 fps=0.7 q=35.8 size=    1792KiB time=00:00:02.05 bitrate=7161.2kbits/s speed=0.012x elapsed=0:02:51.03    \nframe=  125 fps=0.7 q=35.8 size=    1792KiB time=00:00:02.05 bitrate=7161.2kbits/s speed=0.0119x elapsed=0:02:51.56    \nframe=  126 fps=0.7 q=36.1 size=    1792KiB time=00:00:02.06 bitrate=7103.4kbits/s speed=0.012x elapsed=0:02:52.08    \nframe=  126 fps=0.7 q=36.1 size=    1792KiB time=00:00:02.06 bitrate=7103.4kbits/s speed=0.012x elapsed=0:02:52.60    \nframe=  128 fps=0.7 q=34.9 size=    1792KiB time=00:00:02.10 bitrate=6990.7kbits/s speed=0.0121x elapsed=0:02:53.13    \nframe=  129 fps=0.7 q=36.1 size=    1792KiB time=00:00:02.11 bitrate=6935.6kbits/s speed=0.0122x elapsed=0:02:53.67    \nframe=  129 fps=0.7 q=36.1 size=    1792KiB time=00:00:02.11 bitrate=6935.6kbits/s speed=0.0122x elapsed=0:02:54.20    \nframe=  129 fps=0.7 q=36.1 size=    1792KiB time=00:00:02.11 bitrate=6935.6kbits/s speed=0.0121x elapsed=0:02:54.73    \nframe=  130 fps=0.7 q=35.9 size=    1792KiB time=00:00:02.13 bitrate=6881.4kbits/s speed=0.0122x elapsed=0:02:55.27    \nframe=  130 fps=0.7 q=35.9 size=    1792KiB time=00:00:02.13 bitrate=6881.4kbits/s speed=0.0121x elapsed=0:02:55.80    \nframe=  130 fps=0.7 q=35.9 size=    1792KiB time=00:00:02.13 bitrate=6881.4kbits/s speed=0.0121x elapsed=0:02:56.34    \nframe=  131 fps=0.7 q=35.9 size=    1792KiB time=00:00:02.15 bitrate=6828.1kbits/s speed=0.0122x elapsed=0:02:56.85    \nframe=  132 fps=0.7 q=28.4 size=    2048KiB time=00:00:02.16 bitrate=7743.5kbits/s speed=0.0122x elapsed=0:02:57.38    \nframe=  133 fps=0.7 q=34.6 size=    2048KiB time=00:00:02.18 bitrate=7684.4kbits/s speed=0.0123x elapsed=0:02:57.90    \nframe=  135 fps=0.8 q=35.8 size=    2048KiB time=00:00:02.21 bitrate=7568.8kbits/s speed=0.0124x elapsed=0:02:58.42    \nframe=  135 fps=0.8 q=35.8 size=    2048KiB time=00:00:02.21 bitrate=7568.8kbits/s speed=0.0124x elapsed=0:02:58.95    \nframe=  135 fps=0.8 q=35.8 size=    2048KiB time=00:00:02.21 bitrate=7568.8kbits/s speed=0.0123x elapsed=0:02:59.50    \nframe=  135 fps=0.7 q=35.8 size=    2048KiB time=00:00:02.21 bitrate=7568.8kbits/s speed=0.0123x elapsed=0:03:00.06    \nframe=  135 fps=0.7 q=35.8 size=    2048KiB time=00:00:02.21 bitrate=7568.8kbits/s speed=0.0123x elapsed=0:03:00.60    \nframe=  135 fps=0.7 q=35.8 size=    2048KiB time=00:00:02.21 bitrate=7568.8kbits/s speed=0.0122x elapsed=0:03:01.12    \nframe=  136 fps=0.7 q=35.8 size=    2048KiB time=00:00:02.23 bitrate=7512.3kbits/s speed=0.0123x elapsed=0:03:01.64    \nframe=  137 fps=0.8 q=28.8 size=    2048KiB time=00:00:02.25 bitrate=7456.7kbits/s speed=0.0124x elapsed=0:03:02.15    \nframe=  138 fps=0.8 q=34.9 size=    2048KiB time=00:00:02.26 bitrate=7401.9kbits/s speed=0.0124x elapsed=0:03:02.67    \nframe=  139 fps=0.8 q=36.3 size=    2048KiB time=00:00:02.28 bitrate=7347.8kbits/s speed=0.0125x elapsed=0:03:03.19    \nframe=  140 fps=0.8 q=36.1 size=    2048KiB time=00:00:02.30 bitrate=7294.6kbits/s speed=0.0125x elapsed=0:03:03.72    \nframe=  141 fps=0.8 q=35.9 size=    2048KiB time=00:00:02.31 bitrate=7242.1kbits/s speed=0.0126x elapsed=0:03:04.24    \nframe=  142 fps=0.8 q=28.4 size=    2048KiB time=00:00:02.33 bitrate=7190.4kbits/s speed=0.0126x elapsed=0:03:04.74    \nframe=  142 fps=0.8 q=28.4 size=    2048KiB time=00:00:02.33 bitrate=7190.4kbits/s speed=0.0126x elapsed=0:03:05.27    \nframe=  143 fps=0.8 q=34.7 size=    2048KiB time=00:00:02.35 bitrate=7139.4kbits/s speed=0.0126x elapsed=0:03:05.78    \nframe=  144 fps=0.8 q=35.9 size=    2048KiB time=00:00:02.36 bitrate=7089.1kbits/s speed=0.0127x elapsed=0:03:06.31    \nframe=  144 fps=0.8 q=35.9 size=    2048KiB time=00:00:02.36 bitrate=7089.1kbits/s speed=0.0127x elapsed=0:03:06.83    \nframe=  144 fps=0.8 q=35.9 size=    2048KiB time=00:00:02.36 bitrate=7089.1kbits/s speed=0.0126x elapsed=0:03:07.36    \nframe=  145 fps=0.8 q=35.8 size=    2048KiB time=00:00:02.38 bitrate=7039.5kbits/s speed=0.0127x elapsed=0:03:07.89    \nframe=  146 fps=0.8 q=35.9 size=    2048KiB time=00:00:02.40 bitrate=6990.7kbits/s speed=0.0127x elapsed=0:03:08.42    \nframe=  146 fps=0.8 q=35.9 size=    2048KiB time=00:00:02.40 bitrate=6990.7kbits/s speed=0.0127x elapsed=0:03:08.93    \nframe=  148 fps=0.8 q=34.9 size=    2304KiB time=00:00:02.43 bitrate=7756.7kbits/s speed=0.0128x elapsed=0:03:09.46    \nframe=  148 fps=0.8 q=34.9 size=    2304KiB time=00:00:02.43 bitrate=7756.7kbits/s speed=0.0128x elapsed=0:03:09.97    \nframe=  149 fps=0.8 q=36.4 size=    2304KiB time=00:00:02.45 bitrate=7704.0kbits/s speed=0.0129x elapsed=0:03:10.49    \nframe=  149 fps=0.8 q=36.4 size=    2304KiB time=00:00:02.45 bitrate=7704.0kbits/s speed=0.0128x elapsed=0:03:11.03    \nframe=  150 fps=0.8 q=35.9 size=    2304KiB time=00:00:02.46 bitrate=7651.9kbits/s speed=0.0129x elapsed=0:03:11.54    \nframe=  150 fps=0.8 q=35.9 size=    2304KiB time=00:00:02.46 bitrate=7651.9kbits/s speed=0.0128x elapsed=0:03:12.06    \nframe=  150 fps=0.8 q=35.9 size=    2304KiB time=00:00:02.46 bitrate=7651.9kbits/s speed=0.0128x elapsed=0:03:12.57    \nframe=  151 fps=0.8 q=36.1 size=    2304KiB time=00:00:02.48 bitrate=7600.6kbits/s speed=0.0129x elapsed=0:03:13.09    \nframe=  153 fps=0.8 q=34.8 size=    2304KiB time=00:00:02.51 bitrate=7499.9kbits/s speed=0.013x elapsed=0:03:13.61    \nframe=  153 fps=0.8 q=34.8 size=    2304KiB time=00:00:02.51 bitrate=7499.9kbits/s speed=0.013x elapsed=0:03:14.13    \nframe=  153 fps=0.8 q=34.8 size=    2304KiB time=00:00:02.51 bitrate=7499.9kbits/s speed=0.0129x elapsed=0:03:14.68    \nframe=  153 fps=0.8 q=34.8 size=    2304KiB time=00:00:02.51 bitrate=7499.9kbits/s speed=0.0129x elapsed=0:03:15.22    \nframe=  153 fps=0.8 q=34.8 size=    2304KiB time=00:00:02.51 bitrate=7499.9kbits/s speed=0.0129x elapsed=0:03:15.80    \nframe=  153 fps=0.8 q=34.8 size=    2304KiB time=00:00:02.51 bitrate=7499.9kbits/s speed=0.0128x elapsed=0:03:16.46    \nframe=  153 fps=0.8 q=34.8 size=    2304KiB time=00:00:02.51 bitrate=7499.9kbits/s speed=0.0128x elapsed=0:03:17.06    \nframe=  154 fps=0.8 q=36.0 size=    2304KiB time=00:00:02.53 bitrate=7450.5kbits/s speed=0.0128x elapsed=0:03:17.63    \nframe=  154 fps=0.8 q=36.0 size=    2304KiB time=00:00:02.53 bitrate=7450.5kbits/s speed=0.0128x elapsed=0:03:18.16    \nframe=  154 fps=0.8 q=36.0 size=    2304KiB time=00:00:02.53 bitrate=7450.5kbits/s speed=0.0128x elapsed=0:03:18.69    \nframe=  155 fps=0.8 q=35.9 size=    2304KiB time=00:00:02.55 bitrate=7401.9kbits/s speed=0.0128x elapsed=0:03:19.24    \nframe=  155 fps=0.8 q=35.9 size=    2304KiB time=00:00:02.55 bitrate=7401.9kbits/s speed=0.0128x elapsed=0:03:19.74    \nframe=  156 fps=0.8 q=35.8 size=    2304KiB time=00:00:02.56 bitrate=7353.8kbits/s speed=0.0128x elapsed=0:03:20.26    \nframe=  156 fps=0.8 q=35.8 size=    2304KiB time=00:00:02.56 bitrate=7353.8kbits/s speed=0.0128x elapsed=0:03:20.79    \nframe=  156 fps=0.8 q=35.8 size=    2304KiB time=00:00:02.56 bitrate=7353.8kbits/s speed=0.0127x elapsed=0:03:21.32    \nframe=  157 fps=0.8 q=28.4 size=    2304KiB time=00:00:02.58 bitrate=7306.3kbits/s speed=0.0128x elapsed=0:03:21.82    \nframe=  158 fps=0.8 q=34.7 size=    2304KiB time=00:00:02.60 bitrate=7259.5kbits/s speed=0.0128x elapsed=0:03:22.38    \nframe=  159 fps=0.8 q=35.9 size=    2304KiB time=00:00:02.61 bitrate=7213.3kbits/s speed=0.0129x elapsed=0:03:22.89    \nframe=  160 fps=0.8 q=36.2 size=    2304KiB time=00:00:02.63 bitrate=7167.6kbits/s speed=0.0129x elapsed=0:03:23.40    \nframe=  161 fps=0.8 q=36.4 size=    2304KiB time=00:00:02.65 bitrate=7122.5kbits/s speed=0.013x elapsed=0:03:23.92    \nframe=  162 fps=0.8 q=28.5 size=    2304KiB time=00:00:02.66 bitrate=7078.0kbits/s speed=0.013x elapsed=0:03:24.43    \nframe=  162 fps=0.8 q=28.5 size=    2304KiB time=00:00:02.66 bitrate=7078.0kbits/s speed=0.013x elapsed=0:03:25.03    \nframe=  162 fps=0.8 q=28.5 size=    2304KiB time=00:00:02.66 bitrate=7078.0kbits/s speed=0.013x elapsed=0:03:25.61    \nframe=  162 fps=0.8 q=28.5 size=    2304KiB time=00:00:02.66 bitrate=7078.0kbits/s speed=0.0129x elapsed=0:03:26.14    \nframe=  163 fps=0.8 q=35.1 size=    2560KiB time=00:00:02.68 bitrate=7815.6kbits/s speed=0.013x elapsed=0:03:26.65    \nframe=  164 fps=0.8 q=36.2 size=    2560KiB time=00:00:02.70 bitrate=7767.4kbits/s speed=0.013x elapsed=0:03:27.17    \nframe=  164 fps=0.8 q=36.2 size=    2560KiB time=00:00:02.70 bitrate=7767.4kbits/s speed=0.013x elapsed=0:03:27.70    \nframe=  164 fps=0.8 q=36.2 size=    2560KiB time=00:00:02.70 bitrate=7767.4kbits/s speed=0.013x elapsed=0:03:28.22    \nframe=  165 fps=0.8 q=36.2 size=    2560KiB time=00:00:02.71 bitrate=7719.7kbits/s speed=0.013x elapsed=0:03:28.73    \nframe=  165 fps=0.8 q=36.2 size=    2560KiB time=00:00:02.71 bitrate=7719.7kbits/s speed=0.013x elapsed=0:03:29.27    \nframe=  165 fps=0.8 q=36.2 size=    2560KiB time=00:00:02.71 bitrate=7719.7kbits/s speed=0.0129x elapsed=0:03:29.79    \nframe=  166 fps=0.8 q=36.4 size=    2560KiB time=00:00:02.73 bitrate=7672.6kbits/s speed=0.013x elapsed=0:03:30.33    \nframe=  167 fps=0.8 q=28.7 size=    2560KiB time=00:00:02.75 bitrate=7626.1kbits/s speed=0.013x elapsed=0:03:30.86    \nframe=  167 fps=0.8 q=28.7 size=    2560KiB time=00:00:02.75 bitrate=7626.1kbits/s speed=0.013x elapsed=0:03:31.39    \nframe=  168 fps=0.8 q=35.1 size=    2560KiB time=00:00:02.76 bitrate=7580.2kbits/s speed=0.0131x elapsed=0:03:31.90    \nframe=  169 fps=0.8 q=36.3 size=    2560KiB time=00:00:02.78 bitrate=7534.8kbits/s speed=0.0131x elapsed=0:03:32.43    \nframe=  169 fps=0.8 q=36.3 size=    2560KiB time=00:00:02.78 bitrate=7534.8kbits/s speed=0.0131x elapsed=0:03:32.98    \nframe=  170 fps=0.8 q=35.8 size=    2560KiB time=00:00:02.80 bitrate=7490.0kbits/s speed=0.0131x elapsed=0:03:33.50    \nframe=  170 fps=0.8 q=35.8 size=    2560KiB time=00:00:02.80 bitrate=7490.0kbits/s speed=0.0131x elapsed=0:03:34.02    \nframe=  170 fps=0.8 q=35.8 size=    2560KiB time=00:00:02.80 bitrate=7490.0kbits/s speed=0.0131x elapsed=0:03:34.55    \nframe=  171 fps=0.8 q=36.3 size=    2560KiB time=00:00:02.81 bitrate=7445.6kbits/s speed=0.0131x elapsed=0:03:35.07    \nframe=  172 fps=0.8 q=28.6 size=    2560KiB time=00:00:02.83 bitrate=7401.8kbits/s speed=0.0131x elapsed=0:03:35.57    \nframe=  172 fps=0.8 q=28.6 size=    2560KiB time=00:00:02.83 bitrate=7401.8kbits/s speed=0.0131x elapsed=0:03:36.09    \nframe=  172 fps=0.8 q=28.6 size=    2560KiB time=00:00:02.83 bitrate=7401.8kbits/s speed=0.0131x elapsed=0:03:36.62    \nframe=  173 fps=0.8 q=34.7 size=    2560KiB time=00:00:02.85 bitrate=7358.6kbits/s speed=0.0131x elapsed=0:03:37.13    \nframe=  173 fps=0.8 q=34.7 size=    2560KiB time=00:00:02.85 bitrate=7358.6kbits/s speed=0.0131x elapsed=0:03:37.66    \nframe=  174 fps=0.8 q=36.0 size=    2560KiB time=00:00:02.86 bitrate=7315.8kbits/s speed=0.0131x elapsed=0:03:38.18    \nframe=  174 fps=0.8 q=36.0 size=    2560KiB time=00:00:02.86 bitrate=7315.8kbits/s speed=0.0131x elapsed=0:03:38.68    \nframe=  174 fps=0.8 q=36.0 size=    2560KiB time=00:00:02.86 bitrate=7315.8kbits/s speed=0.0131x elapsed=0:03:39.21    \nframe=  175 fps=0.8 q=35.9 size=    2560KiB time=00:00:02.88 bitrate=7273.5kbits/s speed=0.0131x elapsed=0:03:39.71    \nframe=  176 fps=0.8 q=36.0 size=    2560KiB time=00:00:02.90 bitrate=7231.7kbits/s speed=0.0132x elapsed=0:03:40.23    \nframe=  176 fps=0.8 q=36.0 size=    2560KiB time=00:00:02.90 bitrate=7231.7kbits/s speed=0.0131x elapsed=0:03:40.77    \nframe=  177 fps=0.8 q=28.3 size=    2560KiB time=00:00:02.91 bitrate=7190.4kbits/s speed=0.0132x elapsed=0:03:41.28    \nframe=  177 fps=0.8 q=28.3 size=    2560KiB time=00:00:02.91 bitrate=7190.4kbits/s speed=0.0131x elapsed=0:03:41.82    \nframe=  178 fps=0.8 q=34.5 size=    2816KiB time=00:00:02.93 bitrate=7864.4kbits/s speed=0.0132x elapsed=0:03:42.35    \nframe=  178 fps=0.8 q=34.5 size=    2816KiB time=00:00:02.93 bitrate=7864.4kbits/s speed=0.0132x elapsed=0:03:42.88    \nframe=  179 fps=0.8 q=35.7 size=    2816KiB time=00:00:02.95 bitrate=7820.0kbits/s speed=0.0132x elapsed=0:03:43.40    \nframe=  180 fps=0.8 q=35.6 size=    2816KiB time=00:00:02.96 bitrate=7776.1kbits/s speed=0.0132x elapsed=0:03:43.93    \nframe=  180 fps=0.8 q=35.6 size=    2816KiB time=00:00:02.96 bitrate=7776.1kbits/s speed=0.0132x elapsed=0:03:44.45    \nframe=  180 fps=0.8 q=35.6 size=    2816KiB time=00:00:02.96 bitrate=7776.1kbits/s speed=0.0132x elapsed=0:03:44.97    \nframe=  181 fps=0.8 q=35.7 size=    2816KiB time=00:00:02.98 bitrate=7732.6kbits/s speed=0.0132x elapsed=0:03:45.48    \nframe=  182 fps=0.8 q=28.1 size=    2816KiB time=00:00:03.00 bitrate=7689.7kbits/s speed=0.0133x elapsed=0:03:46.00    \nframe=  183 fps=0.8 q=34.3 size=    2816KiB time=00:00:03.01 bitrate=7647.2kbits/s speed=0.0133x elapsed=0:03:46.53    \nframe=  183 fps=0.8 q=34.3 size=    2816KiB time=00:00:03.01 bitrate=7647.2kbits/s speed=0.0133x elapsed=0:03:47.06    \nframe=  183 fps=0.8 q=34.3 size=    2816KiB time=00:00:03.01 bitrate=7647.2kbits/s speed=0.0133x elapsed=0:03:47.63    \nframe=  183 fps=0.8 q=34.3 size=    2816KiB time=00:00:03.01 bitrate=7647.2kbits/s speed=0.0132x elapsed=0:03:48.20    \nframe=  184 fps=0.8 q=35.5 size=    2816KiB time=00:00:03.03 bitrate=7605.2kbits/s speed=0.0133x elapsed=0:03:48.72    \nframe=  185 fps=0.8 q=35.3 size=    2816KiB time=00:00:03.05 bitrate=7563.6kbits/s speed=0.0133x elapsed=0:03:49.23    \nframe=  186 fps=0.8 q=35.3 size=    2816KiB time=00:00:03.06 bitrate=7522.5kbits/s speed=0.0133x elapsed=0:03:49.75    \nframe=  187 fps=0.8 q=28.1 size=    2816KiB time=00:00:03.08 bitrate=7481.8kbits/s speed=0.0134x elapsed=0:03:50.27    \nframe=  188 fps=0.8 q=34.3 size=    2816KiB time=00:00:03.10 bitrate=7441.6kbits/s speed=0.0134x elapsed=0:03:50.79    \nframe=  188 fps=0.8 q=34.3 size=    2816KiB time=00:00:03.10 bitrate=7441.6kbits/s speed=0.0134x elapsed=0:03:51.31    \nframe=  189 fps=0.8 q=35.6 size=    2816KiB time=00:00:03.11 bitrate=7401.8kbits/s speed=0.0134x elapsed=0:03:51.84    \nframe=  189 fps=0.8 q=35.6 size=    2816KiB time=00:00:03.11 bitrate=7401.8kbits/s speed=0.0134x elapsed=0:03:52.36    \nframe=  189 fps=0.8 q=35.6 size=    2816KiB time=00:00:03.11 bitrate=7401.8kbits/s speed=0.0134x elapsed=0:03:52.87    \nframe=  189 fps=0.8 q=35.6 size=    2816KiB time=00:00:03.11 bitrate=7401.8kbits/s speed=0.0134x elapsed=0:03:53.39    \nframe=  190 fps=0.8 q=35.2 size=    2816KiB time=00:00:03.13 bitrate=7362.5kbits/s speed=0.0134x elapsed=0:03:53.91    \nframe=  192 fps=0.8 q=28.5 size=    2816KiB time=00:00:03.16 bitrate=7285.0kbits/s speed=0.0135x elapsed=0:03:54.42    \nframe=  192 fps=0.8 q=28.5 size=    2816KiB time=00:00:03.16 bitrate=7285.0kbits/s speed=0.0135x elapsed=0:03:54.94    \nframe=  192 fps=0.8 q=28.5 size=    2816KiB time=00:00:03.16 bitrate=7285.0kbits/s speed=0.0134x elapsed=0:03:55.50    \nframe=  193 fps=0.8 q=34.1 size=    2816KiB time=00:00:03.18 bitrate=7246.8kbits/s speed=0.0135x elapsed=0:03:56.03    \nframe=  193 fps=0.8 q=34.1 size=    2816KiB time=00:00:03.18 bitrate=7246.8kbits/s speed=0.0135x elapsed=0:03:56.60    \nframe=  193 fps=0.8 q=34.1 size=    2816KiB time=00:00:03.18 bitrate=7246.8kbits/s speed=0.0134x elapsed=0:03:57.15    \nframe=  193 fps=0.8 q=34.1 size=    2816KiB time=00:00:03.18 bitrate=7246.8kbits/s speed=0.0134x elapsed=0:03:57.76    \nframe=  193 fps=0.8 q=34.1 size=    2816KiB time=00:00:03.18 bitrate=7246.8kbits/s speed=0.0133x elapsed=0:03:58.46    \nframe=  193 fps=0.8 q=34.1 size=    2816KiB time=00:00:03.18 bitrate=7246.8kbits/s speed=0.0133x elapsed=0:03:59.10    \nframe=  193 fps=0.8 q=34.1 size=    2816KiB time=00:00:03.18 bitrate=7246.8kbits/s speed=0.0133x elapsed=0:03:59.64    \nframe=  194 fps=0.8 q=35.3 size=    2816KiB time=00:00:03.20 bitrate=7209.1kbits/s speed=0.0133x elapsed=0:04:00.17    \nframe=  194 fps=0.8 q=35.3 size=    2816KiB time=00:00:03.20 bitrate=7209.1kbits/s speed=0.0133x elapsed=0:04:00.70    \nframe=  195 fps=0.8 q=34.9 size=    3072KiB time=00:00:03.21 bitrate=7823.7kbits/s speed=0.0133x elapsed=0:04:01.25    \nframe=  195 fps=0.8 q=34.9 size=    3072KiB time=00:00:03.21 bitrate=7823.7kbits/s speed=0.0133x elapsed=0:04:01.79    \nframe=  195 fps=0.8 q=34.9 size=    3072KiB time=00:00:03.21 bitrate=7823.7kbits/s speed=0.0133x elapsed=0:04:02.35    \nframe=  195 fps=0.8 q=34.9 size=    3072KiB time=00:00:03.21 bitrate=7823.7kbits/s speed=0.0132x elapsed=0:04:02.91    \nframe=  196 fps=0.8 q=35.3 size=    3072KiB time=00:00:03.23 bitrate=7783.4kbits/s speed=0.0133x elapsed=0:04:03.48    \nframe=  196 fps=0.8 q=35.3 size=    3072KiB time=00:00:03.23 bitrate=7783.4kbits/s speed=0.0133x elapsed=0:04:04.01    \nframe=  196 fps=0.8 q=35.3 size=    3072KiB time=00:00:03.23 bitrate=7783.4kbits/s speed=0.0132x elapsed=0:04:04.55    \nframe=  196 fps=0.8 q=35.3 size=    3072KiB time=00:00:03.23 bitrate=7783.4kbits/s speed=0.0132x elapsed=0:04:05.10    \nframe=  196 fps=0.8 q=35.3 size=    3072KiB time=00:00:03.23 bitrate=7783.4kbits/s speed=0.0132x elapsed=0:04:05.63    \nframe=  197 fps=0.8 q=28.2 size=    3072KiB time=00:00:03.25 bitrate=7743.4kbits/s speed=0.0132x elapsed=0:04:06.20    \nframe=  198 fps=0.8 q=34.0 size=    3072KiB time=00:00:03.26 bitrate=7703.9kbits/s speed=0.0132x elapsed=0:04:06.76    \nframe=  198 fps=0.8 q=34.0 size=    3072KiB time=00:00:03.26 bitrate=7703.9kbits/s speed=0.0132x elapsed=0:04:07.28    \nframe=  199 fps=0.8 q=35.1 size=    3072KiB time=00:00:03.28 bitrate=7664.8kbits/s speed=0.0132x elapsed=0:04:07.81    \nframe=  199 fps=0.8 q=35.1 size=    3072KiB time=00:00:03.28 bitrate=7664.8kbits/s speed=0.0132x elapsed=0:04:08.32    \nframe=  200 fps=0.8 q=34.9 size=    3072KiB time=00:00:03.30 bitrate=7626.1kbits/s speed=0.0133x elapsed=0:04:08.84    \nframe=  201 fps=0.8 q=34.9 size=    3072KiB time=00:00:03.31 bitrate=7587.8kbits/s speed=0.0133x elapsed=0:04:09.40    \nframe=  201 fps=0.8 q=34.9 size=    3072KiB time=00:00:03.31 bitrate=7587.8kbits/s speed=0.0133x elapsed=0:04:09.94    \nframe=  201 fps=0.8 q=34.9 size=    3072KiB time=00:00:03.31 bitrate=7587.8kbits/s speed=0.0132x elapsed=0:04:10.53    \nframe=  201 fps=0.8 q=34.9 size=    3072KiB time=00:00:03.31 bitrate=7587.8kbits/s speed=0.0132x elapsed=0:04:11.12    \nframe=  201 fps=0.8 q=34.9 size=    3072KiB time=00:00:03.31 bitrate=7587.8kbits/s speed=0.0132x elapsed=0:04:11.76    \nframe=  202 fps=0.8 q=28.3 size=    3072KiB time=00:00:03.33 bitrate=7549.9kbits/s speed=0.0132x elapsed=0:04:12.43    \nframe=  203 fps=0.8 q=34.0 size=    3072KiB time=00:00:03.35 bitrate=7512.3kbits/s speed=0.0132x elapsed=0:04:13.06    \nframe=  203 fps=0.8 q=34.0 size=    3072KiB time=00:00:03.35 bitrate=7512.3kbits/s speed=0.0132x elapsed=0:04:13.60    \nframe=  203 fps=0.8 q=34.0 size=    3072KiB time=00:00:03.35 bitrate=7512.3kbits/s speed=0.0132x elapsed=0:04:14.13    \nframe=  204 fps=0.8 q=34.8 size=    3072KiB time=00:00:03.36 bitrate=7475.1kbits/s speed=0.0132x elapsed=0:04:14.69    \nframe=  204 fps=0.8 q=34.8 size=    3072KiB time=00:00:03.36 bitrate=7475.1kbits/s speed=0.0132x elapsed=0:04:15.22    \nframe=  204 fps=0.8 q=34.8 size=    3072KiB time=00:00:03.36 bitrate=7475.1kbits/s speed=0.0132x elapsed=0:04:15.80    \nframe=  204 fps=0.8 q=34.8 size=    3072KiB time=00:00:03.36 bitrate=7475.1kbits/s speed=0.0131x elapsed=0:04:16.38    \nframe=  205 fps=0.8 q=34.9 size=    3072KiB time=00:00:03.38 bitrate=7438.3kbits/s speed=0.0132x elapsed=0:04:16.92    \nframe=  205 fps=0.8 q=34.9 size=    3072KiB time=00:00:03.38 bitrate=7438.3kbits/s speed=0.0131x elapsed=0:04:17.44    \nframe=  205 fps=0.8 q=34.9 size=    3072KiB time=00:00:03.38 bitrate=7438.3kbits/s speed=0.0131x elapsed=0:04:17.96    \nframe=  205 fps=0.8 q=34.9 size=    3072KiB time=00:00:03.38 bitrate=7438.3kbits/s speed=0.0131x elapsed=0:04:18.50    \nframe=  206 fps=0.8 q=34.9 size=    3072KiB time=00:00:03.40 bitrate=7401.8kbits/s speed=0.0131x elapsed=0:04:19.04    \nframe=  207 fps=0.8 q=28.2 size=    3072KiB time=00:00:03.41 bitrate=7365.7kbits/s speed=0.0132x elapsed=0:04:19.56    \nframe=  207 fps=0.8 q=28.2 size=    3072KiB time=00:00:03.41 bitrate=7365.7kbits/s speed=0.0131x elapsed=0:04:20.08    \nframe=  207 fps=0.8 q=28.2 size=    3072KiB time=00:00:03.41 bitrate=7365.7kbits/s speed=0.0131x elapsed=0:04:20.65    \nframe=  208 fps=0.8 q=33.8 size=    3072KiB time=00:00:03.43 bitrate=7330.0kbits/s speed=0.0131x elapsed=0:04:21.17    \nframe=  209 fps=0.8 q=34.9 size=    3072KiB time=00:00:03.45 bitrate=7294.5kbits/s speed=0.0132x elapsed=0:04:21.68    \nframe=  209 fps=0.8 q=34.9 size=    3072KiB time=00:00:03.45 bitrate=7294.5kbits/s speed=0.0132x elapsed=0:04:22.20    \nframe=  209 fps=0.8 q=34.9 size=    3072KiB time=00:00:03.45 bitrate=7294.5kbits/s speed=0.0131x elapsed=0:04:22.78    \nframe=  209 fps=0.8 q=34.9 size=    3072KiB time=00:00:03.45 bitrate=7294.5kbits/s speed=0.0131x elapsed=0:04:23.33    \nframe=  210 fps=0.8 q=34.5 size=    3072KiB time=00:00:03.46 bitrate=7259.5kbits/s speed=0.0131x elapsed=0:04:23.85    \nframe=  210 fps=0.8 q=34.5 size=    3072KiB time=00:00:03.46 bitrate=7259.5kbits/s speed=0.0131x elapsed=0:04:24.40    \nframe=  211 fps=0.8 q=34.4 size=    3328KiB time=00:00:03.48 bitrate=7826.8kbits/s speed=0.0131x elapsed=0:04:25.01    \nframe=  211 fps=0.8 q=34.4 size=    3328KiB time=00:00:03.48 bitrate=7826.8kbits/s speed=0.0131x elapsed=0:04:25.58    \nframe=  211 fps=0.8 q=34.4 size=    3328KiB time=00:00:03.48 bitrate=7826.8kbits/s speed=0.0131x elapsed=0:04:26.10    \nframe=  212 fps=0.8 q=28.2 size=    3328KiB time=00:00:03.50 bitrate=7789.5kbits/s speed=0.0131x elapsed=0:04:26.65    \nframe=  212 fps=0.8 q=28.2 size=    3328KiB time=00:00:03.50 bitrate=7789.5kbits/s speed=0.0131x elapsed=0:04:27.18    \nframe=  213 fps=0.8 q=33.7 size=    3328KiB time=00:00:03.51 bitrate=7752.6kbits/s speed=0.0131x elapsed=0:04:27.70    \nframe=  213 fps=0.8 q=33.7 size=    3328KiB time=00:00:03.51 bitrate=7752.6kbits/s speed=0.0131x elapsed=0:04:28.24    \nframe=  214 fps=0.8 q=34.8 size=    3328KiB time=00:00:03.53 bitrate=7716.0kbits/s speed=0.0131x elapsed=0:04:28.79    \nframe=  214 fps=0.8 q=34.8 size=    3328KiB time=00:00:03.53 bitrate=7716.0kbits/s speed=0.0131x elapsed=0:04:29.31    \nframe=  214 fps=0.8 q=34.8 size=    3328KiB time=00:00:03.53 bitrate=7716.0kbits/s speed=0.0131x elapsed=0:04:29.86    \nframe=  214 fps=0.8 q=34.8 size=    3328KiB time=00:00:03.53 bitrate=7716.0kbits/s speed=0.0131x elapsed=0:04:30.39    \nframe=  215 fps=0.8 q=34.7 size=    3328KiB time=00:00:03.55 bitrate=7679.8kbits/s speed=0.0131x elapsed=0:04:30.90    \nframe=  215 fps=0.8 q=34.7 size=    3328KiB time=00:00:03.55 bitrate=7679.8kbits/s speed=0.0131x elapsed=0:04:31.45    \nframe=  216 fps=0.8 q=34.7 size=    3328KiB time=00:00:03.56 bitrate=7643.9kbits/s speed=0.0131x elapsed=0:04:32.01    \nframe=  216 fps=0.8 q=34.7 size=    3328KiB time=00:00:03.56 bitrate=7643.9kbits/s speed=0.0131x elapsed=0:04:32.56    \nframe=  216 fps=0.8 q=34.7 size=    3328KiB time=00:00:03.56 bitrate=7643.9kbits/s speed=0.0131x elapsed=0:04:33.12    \nframe=  216 fps=0.8 q=34.7 size=    3328KiB time=00:00:03.56 bitrate=7643.9kbits/s speed=0.013x elapsed=0:04:33.66    \nframe=  216 fps=0.8 q=34.7 size=    3328KiB time=00:00:03.56 bitrate=7643.9kbits/s speed=0.013x elapsed=0:04:34.26    \nframe=  216 fps=0.8 q=34.7 size=    3328KiB time=00:00:03.56 bitrate=7643.9kbits/s speed=0.013x elapsed=0:04:34.84    \nframe=  216 fps=0.8 q=34.7 size=    3328KiB time=00:00:03.56 bitrate=7643.9kbits/s speed=0.013x elapsed=0:04:35.38    \nframe=  217 fps=0.8 q=28.1 size=    3328KiB time=00:00:03.58 bitrate=7608.4kbits/s speed=0.013x elapsed=0:04:35.94    \nframe=  218 fps=0.8 q=34.0 size=    3328KiB time=00:00:03.60 bitrate=7573.1kbits/s speed=0.013x elapsed=0:04:36.48    \nframe=  218 fps=0.8 q=34.0 size=    3328KiB time=00:00:03.60 bitrate=7573.1kbits/s speed=0.013x elapsed=0:04:37.02    \nframe=  219 fps=0.8 q=35.3 size=    3328KiB time=00:00:03.60 bitrate=7573.1kbits/s speed=0.013x elapsed=0:04:37.57    \nframe=  219 fps=0.8 q=35.3 size=    3328KiB time=00:00:03.61 bitrate=7538.2kbits/s speed=0.013x elapsed=0:04:38.12    \nframe=  219 fps=0.8 q=35.3 size=    3328KiB time=00:00:03.61 bitrate=7538.2kbits/s speed=0.013x elapsed=0:04:38.72    \nframe=  219 fps=0.8 q=35.3 size=    3328KiB time=00:00:03.61 bitrate=7538.2kbits/s speed=0.013x elapsed=0:04:39.25    \nframe=  220 fps=0.8 q=35.1 size=    3328KiB time=00:00:03.63 bitrate=7503.7kbits/s speed=0.013x elapsed=0:04:39.77    \nframe=  220 fps=0.8 q=35.1 size=    3328KiB time=00:00:03.63 bitrate=7503.7kbits/s speed=0.013x elapsed=0:04:40.28    \nframe=  220 fps=0.8 q=35.1 size=    3328KiB time=00:00:03.63 bitrate=7503.7kbits/s speed=0.0129x elapsed=0:04:40.80    \nframe=  221 fps=0.8 q=35.5 size=    3328KiB time=00:00:03.65 bitrate=7469.4kbits/s speed=0.013x elapsed=0:04:41.35    \nframe=  221 fps=0.8 q=35.5 size=    3328KiB time=00:00:03.65 bitrate=7469.4kbits/s speed=0.0129x elapsed=0:04:41.87    \nframe=  222 fps=0.8 q=28.4 size=    3328KiB time=00:00:03.66 bitrate=7435.5kbits/s speed=0.013x elapsed=0:04:42.39    \nframe=  222 fps=0.8 q=28.4 size=    3328KiB time=00:00:03.66 bitrate=7435.5kbits/s speed=0.013x elapsed=0:04:42.92    \nframe=  222 fps=0.8 q=28.4 size=    3328KiB time=00:00:03.66 bitrate=7435.5kbits/s speed=0.0129x elapsed=0:04:43.43    \nframe=  224 fps=0.8 q=35.6 size=    3328KiB time=00:00:03.70 bitrate=7368.5kbits/s speed=0.013x elapsed=0:04:43.96    \nframe=  225 fps=0.8 q=35.6 size=    3328KiB time=00:00:03.71 bitrate=7335.4kbits/s speed=0.0131x elapsed=0:04:44.49    \nframe=  225 fps=0.8 q=35.6 size=    3328KiB time=00:00:03.71 bitrate=7335.4kbits/s speed=0.013x elapsed=0:04:45.03    \nframe=  225 fps=0.8 q=35.6 size=    3328KiB time=00:00:03.71 bitrate=7335.4kbits/s speed=0.013x elapsed=0:04:45.55    \nframe=  226 fps=0.8 q=35.6 size=    3328KiB time=00:00:03.73 bitrate=7302.7kbits/s speed=0.0131x elapsed=0:04:46.06    \nframe=  226 fps=0.8 q=35.6 size=    3328KiB time=00:00:03.73 bitrate=7302.7kbits/s speed=0.013x elapsed=0:04:46.57    \nframe=  227 fps=0.8 q=28.4 size=    3328KiB time=00:00:03.75 bitrate=7270.2kbits/s speed=0.0131x elapsed=0:04:47.09    \nframe=  227 fps=0.8 q=28.4 size=    3328KiB time=00:00:03.75 bitrate=7270.2kbits/s speed=0.013x elapsed=0:04:47.61    \nframe=  228 fps=0.8 q=36.1 size=    3584KiB time=00:00:03.76 bitrate=7794.8kbits/s speed=0.0131x elapsed=0:04:48.13    \nframe=  228 fps=0.8 q=36.1 size=    3584KiB time=00:00:03.76 bitrate=7794.8kbits/s speed=0.013x elapsed=0:04:48.65    \nframe=  229 fps=0.8 q=36.4 size=    3584KiB time=00:00:03.78 bitrate=7760.5kbits/s speed=0.0131x elapsed=0:04:49.17    \nframe=  230 fps=0.8 q=36.8 size=    3584KiB time=00:00:03.80 bitrate=7726.4kbits/s speed=0.0131x elapsed=0:04:49.70    \nframe=  230 fps=0.8 q=36.8 size=    3584KiB time=00:00:03.80 bitrate=7726.4kbits/s speed=0.0131x elapsed=0:04:50.25    \nframe=  230 fps=0.8 q=36.8 size=    3584KiB time=00:00:03.80 bitrate=7726.4kbits/s speed=0.0131x elapsed=0:04:50.82    \nframe=  231 fps=0.8 q=36.5 size=    3584KiB time=00:00:03.81 bitrate=7692.7kbits/s speed=0.0131x elapsed=0:04:51.35    \nframe=  231 fps=0.8 q=36.5 size=    3584KiB time=00:00:03.81 bitrate=7692.7kbits/s speed=0.0131x elapsed=0:04:51.91    \nframe=  232 fps=0.8 q=30.0 size=    3584KiB time=00:00:03.81 bitrate=7692.7kbits/s speed=0.0131x elapsed=0:04:52.42    \nframe=  232 fps=0.8 q=30.0 size=    3584KiB time=00:00:03.83 bitrate=7659.3kbits/s speed=0.0131x elapsed=0:04:52.96    \nframe=  233 fps=0.8 q=37.3 size=    3584KiB time=00:00:03.85 bitrate=7626.1kbits/s speed=0.0131x elapsed=0:04:53.46    \nframe=  233 fps=0.8 q=37.3 size=    3584KiB time=00:00:03.85 bitrate=7626.1kbits/s speed=0.0131x elapsed=0:04:53.98    \nframe=  233 fps=0.8 q=37.3 size=    3584KiB time=00:00:03.85 bitrate=7626.1kbits/s speed=0.0131x elapsed=0:04:54.52    \nframe=  234 fps=0.8 q=37.1 size=    3584KiB time=00:00:03.86 bitrate=7593.2kbits/s speed=0.0131x elapsed=0:04:55.04    \nframe=  234 fps=0.8 q=37.1 size=    3584KiB time=00:00:03.86 bitrate=7593.2kbits/s speed=0.0131x elapsed=0:04:55.57    \nframe=  235 fps=0.8 q=37.2 size=    3584KiB time=00:00:03.88 bitrate=7560.6kbits/s speed=0.0131x elapsed=0:04:56.12    \nframe=  235 fps=0.8 q=37.2 size=    3584KiB time=00:00:03.88 bitrate=7560.6kbits/s speed=0.0131x elapsed=0:04:56.64    \nframe=  235 fps=0.8 q=37.2 size=    3584KiB time=00:00:03.88 bitrate=7560.6kbits/s speed=0.0131x elapsed=0:04:57.16    \nframe=  236 fps=0.8 q=37.7 size=    3584KiB time=00:00:03.90 bitrate=7528.3kbits/s speed=0.0131x elapsed=0:04:57.68    \nframe=  237 fps=0.8 q=31.2 size=    3584KiB time=00:00:03.91 bitrate=7496.3kbits/s speed=0.0131x elapsed=0:04:58.20    \nframe=  237 fps=0.8 q=31.2 size=    3584KiB time=00:00:03.91 bitrate=7496.3kbits/s speed=0.0131x elapsed=0:04:58.72    \nframe=  238 fps=0.8 q=37.9 size=    3584KiB time=00:00:03.93 bitrate=7464.5kbits/s speed=0.0131x elapsed=0:04:59.24    \nframe=  238 fps=0.8 q=37.9 size=    3584KiB time=00:00:03.93 bitrate=7464.5kbits/s speed=0.0131x elapsed=0:04:59.76    \nframe=  239 fps=0.8 q=38.0 size=    3584KiB time=00:00:03.95 bitrate=7433.0kbits/s speed=0.0132x elapsed=0:05:00.29    \nframe=  239 fps=0.8 q=38.0 size=    3584KiB time=00:00:03.95 bitrate=7433.0kbits/s speed=0.0131x elapsed=0:05:00.81    \nframe=  239 fps=0.8 q=38.0 size=    3584KiB time=00:00:03.95 bitrate=7433.0kbits/s speed=0.0131x elapsed=0:05:01.37    \nframe=  239 fps=0.8 q=38.0 size=    3584KiB time=00:00:03.95 bitrate=7433.0kbits/s speed=0.0131x elapsed=0:05:01.95    \nframe=  240 fps=0.8 q=38.1 size=    3584KiB time=00:00:03.96 bitrate=7401.8kbits/s speed=0.0131x elapsed=0:05:02.49    \nframe=  240 fps=0.8 q=38.1 size=    3584KiB time=00:00:03.96 bitrate=7401.8kbits/s speed=0.0131x elapsed=0:05:03.01    \nframe=  240 fps=0.8 q=38.1 size=    3584KiB time=00:00:03.96 bitrate=7401.8kbits/s speed=0.0131x elapsed=0:05:03.55    \nframe=  241 fps=0.8 q=38.4 size=    3584KiB time=00:00:03.98 bitrate=7370.8kbits/s speed=0.0131x elapsed=0:05:04.06    \nframe=  241 fps=0.8 q=38.4 size=    3584KiB time=00:00:03.98 bitrate=7370.8kbits/s speed=0.0131x elapsed=0:05:04.58    \nframe=  241 fps=0.8 q=38.4 size=    3584KiB time=00:00:03.98 bitrate=7370.8kbits/s speed=0.0131x elapsed=0:05:05.10    \nframe=  241 fps=0.8 q=38.4 size=    3584KiB time=00:00:03.98 bitrate=7370.8kbits/s speed=0.013x elapsed=0:05:05.66    \nframe=  241 fps=0.8 q=38.4 size=    3584KiB time=00:00:03.98 bitrate=7370.8kbits/s speed=0.013x elapsed=0:05:06.21    \nframe=  241 fps=0.8 q=38.4 size=    3584KiB time=00:00:03.98 bitrate=7370.8kbits/s speed=0.013x elapsed=0:05:06.80    \nframe=  241 fps=0.8 q=38.4 size=    3584KiB time=00:00:03.98 bitrate=7370.8kbits/s speed=0.013x elapsed=0:05:07.44    \nframe=  241 fps=0.8 q=38.4 size=    3584KiB time=00:00:03.98 bitrate=7370.8kbits/s speed=0.0129x elapsed=0:05:08.04    \nframe=  241 fps=0.8 q=38.4 size=    3584KiB time=00:00:03.98 bitrate=7370.8kbits/s speed=0.0129x elapsed=0:05:08.68    \nframe=  242 fps=0.8 q=32.5 size=    3584KiB time=00:00:04.00 bitrate=7340.1kbits/s speed=0.0129x elapsed=0:05:09.28    \nframe=  242 fps=0.8 q=32.5 size=    3584KiB time=00:00:04.00 bitrate=7340.1kbits/s speed=0.0129x elapsed=0:05:09.84    \nframe=  242 fps=0.8 q=32.5 size=    3584KiB time=00:00:04.00 bitrate=7340.1kbits/s speed=0.0129x elapsed=0:05:10.37    \nframe=  242 fps=0.8 q=32.5 size=    3584KiB time=00:00:04.00 bitrate=7340.1kbits/s speed=0.0129x elapsed=0:05:10.96    \nframe=  243 fps=0.8 q=38.5 size=    3584KiB time=00:00:04.01 bitrate=7309.7kbits/s speed=0.0129x elapsed=0:05:11.51    \nframe=  243 fps=0.8 q=38.5 size=    3584KiB time=00:00:04.01 bitrate=7309.7kbits/s speed=0.0129x elapsed=0:05:12.03    \nframe=  244 fps=0.8 q=38.6 size=    3840KiB time=00:00:04.03 bitrate=7799.4kbits/s speed=0.0129x elapsed=0:05:12.55    \nframe=  244 fps=0.8 q=38.6 size=    3840KiB time=00:00:04.03 bitrate=7799.4kbits/s speed=0.0129x elapsed=0:05:13.09    \nframe=  244 fps=0.8 q=38.6 size=    3840KiB time=00:00:04.03 bitrate=7799.4kbits/s speed=0.0129x elapsed=0:05:13.65    \nframe=  244 fps=0.8 q=38.6 size=    3840KiB time=00:00:04.03 bitrate=7799.4kbits/s speed=0.0128x elapsed=0:05:14.21    \nframe=  244 fps=0.8 q=38.6 size=    3840KiB time=00:00:04.03 bitrate=7799.4kbits/s speed=0.0128x elapsed=0:05:14.74    \nframe=  244 fps=0.8 q=38.6 size=    3840KiB time=00:00:04.03 bitrate=7799.4kbits/s speed=0.0128x elapsed=0:05:15.25    \nframe=  244 fps=0.8 q=38.6 size=    3840KiB time=00:00:04.03 bitrate=7799.4kbits/s speed=0.0128x elapsed=0:05:15.76    \nframe=  245 fps=0.8 q=39.0 size=    3840KiB time=00:00:04.05 bitrate=7767.3kbits/s speed=0.0128x elapsed=0:05:16.28    \nframe=  246 fps=0.8 q=39.0 size=    3840KiB time=00:00:04.06 bitrate=7735.5kbits/s speed=0.0128x elapsed=0:05:16.81    \nframe=  246 fps=0.8 q=39.0 size=    3840KiB time=00:00:04.06 bitrate=7735.5kbits/s speed=0.0128x elapsed=0:05:17.34    \nframe=  246 fps=0.8 q=39.0 size=    3840KiB time=00:00:04.06 bitrate=7735.5kbits/s speed=0.0128x elapsed=0:05:17.86    \nframe=  246 fps=0.8 q=39.0 size=    3840KiB time=00:00:04.06 bitrate=7735.5kbits/s speed=0.0128x elapsed=0:05:18.41    \nframe=  246 fps=0.8 q=39.0 size=    3840KiB time=00:00:04.06 bitrate=7735.5kbits/s speed=0.0127x elapsed=0:05:18.96    \nframe=  246 fps=0.8 q=39.0 size=    3840KiB time=00:00:04.06 bitrate=7735.5kbits/s speed=0.0127x elapsed=0:05:19.49    \nframe=  246 fps=0.8 q=39.0 size=    3840KiB time=00:00:04.06 bitrate=7735.5kbits/s speed=0.0127x elapsed=0:05:19.99    \nframe=  246 fps=0.8 q=39.0 size=    3840KiB time=00:00:04.06 bitrate=7735.5kbits/s speed=0.0127x elapsed=0:05:20.53    \nframe=  247 fps=0.8 q=29.8 size=    3840KiB time=00:00:04.08 bitrate=7703.9kbits/s speed=0.0127x elapsed=0:05:21.08    \nframe=  247 fps=0.8 q=29.8 size=    3840KiB time=00:00:04.08 bitrate=7703.9kbits/s speed=0.0127x elapsed=0:05:21.63    \nframe=  248 fps=0.8 q=39.8 size=    4096KiB time=00:00:04.10 bitrate=8184.1kbits/s speed=0.0127x elapsed=0:05:22.16    \nframe=  249 fps=0.8 q=40.3 size=    4096KiB time=00:00:04.11 bitrate=8151.0kbits/s speed=0.0128x elapsed=0:05:22.71    \nframe=  249 fps=0.8 q=40.3 size=    4096KiB time=00:00:04.11 bitrate=8151.0kbits/s speed=0.0127x elapsed=0:05:23.26    \nframe=  250 fps=0.8 q=40.2 size=    4096KiB time=00:00:04.13 bitrate=8118.1kbits/s speed=0.0128x elapsed=0:05:23.82    \nframe=  250 fps=0.8 q=40.2 size=    4096KiB time=00:00:04.13 bitrate=8118.1kbits/s speed=0.0127x elapsed=0:05:24.37    \nframe=  250 fps=0.8 q=40.2 size=    4096KiB time=00:00:04.13 bitrate=8118.1kbits/s speed=0.0127x elapsed=0:05:24.90    \nframe=  250 fps=0.8 q=40.2 size=    4096KiB time=00:00:04.13 bitrate=8118.1kbits/s speed=0.0127x elapsed=0:05:25.42    \nframe=  251 fps=0.8 q=40.5 size=    4096KiB time=00:00:04.15 bitrate=8085.5kbits/s speed=0.0127x elapsed=0:05:25.95    \nframe=  252 fps=0.8 q=33.5 size=    4096KiB time=00:00:04.16 bitrate=8053.1kbits/s speed=0.0128x elapsed=0:05:26.51    \nframe=  252 fps=0.8 q=33.5 size=    4096KiB time=00:00:04.16 bitrate=8053.1kbits/s speed=0.0127x elapsed=0:05:27.05    \nframe=  253 fps=0.8 q=39.6 size=    4096KiB time=00:00:04.18 bitrate=8021.1kbits/s speed=0.0128x elapsed=0:05:27.61    \nframe=  253 fps=0.8 q=39.6 size=    4096KiB time=00:00:04.18 bitrate=8021.1kbits/s speed=0.0127x elapsed=0:05:28.16    \nframe=  253 fps=0.8 q=39.6 size=    4096KiB time=00:00:04.18 bitrate=8021.1kbits/s speed=0.0127x elapsed=0:05:28.75    \nframe=  253 fps=0.8 q=39.6 size=    4096KiB time=00:00:04.18 bitrate=8021.1kbits/s speed=0.0127x elapsed=0:05:29.33    \nframe=  253 fps=0.8 q=39.6 size=    4096KiB time=00:00:04.18 bitrate=8021.1kbits/s speed=0.0127x elapsed=0:05:29.93    \nframe=  253 fps=0.8 q=39.6 size=    4096KiB time=00:00:04.18 bitrate=8021.1kbits/s speed=0.0127x elapsed=0:05:30.50    \nframe=  253 fps=0.8 q=39.6 size=    4096KiB time=00:00:04.18 bitrate=8021.1kbits/s speed=0.0126x elapsed=0:05:31.03    \nframe=  254 fps=0.8 q=40.7 size=    4096KiB time=00:00:04.20 bitrate=7989.2kbits/s speed=0.0127x elapsed=0:05:31.56    \nframe=  254 fps=0.8 q=40.7 size=    4096KiB time=00:00:04.20 bitrate=7989.2kbits/s speed=0.0126x elapsed=0:05:32.07    \nframe=  254 fps=0.8 q=40.7 size=    4096KiB time=00:00:04.20 bitrate=7989.2kbits/s speed=0.0126x elapsed=0:05:32.59    \nframe=  254 fps=0.8 q=40.7 size=    4096KiB time=00:00:04.20 bitrate=7989.2kbits/s speed=0.0126x elapsed=0:05:33.12    \nframe=  255 fps=0.8 q=40.8 size=    4096KiB time=00:00:04.21 bitrate=7957.7kbits/s speed=0.0126x elapsed=0:05:33.69    \nframe=  255 fps=0.8 q=40.8 size=    4096KiB time=00:00:04.21 bitrate=7957.7kbits/s speed=0.0126x elapsed=0:05:34.30    \nframe=  255 fps=0.8 q=40.8 size=    4096KiB time=00:00:04.21 bitrate=7957.7kbits/s speed=0.0126x elapsed=0:05:34.83    \nframe=  255 fps=0.8 q=40.8 size=    4096KiB time=00:00:04.21 bitrate=7957.7kbits/s speed=0.0126x elapsed=0:05:35.44    \nframe=  255 fps=0.8 q=40.8 size=    4096KiB time=00:00:04.21 bitrate=7957.7kbits/s speed=0.0125x elapsed=0:05:36.01    \nframe=  255 fps=0.8 q=40.8 size=    4096KiB time=00:00:04.21 bitrate=7957.7kbits/s speed=0.0125x elapsed=0:05:36.57    \nframe=  255 fps=0.8 q=40.8 size=    4096KiB time=00:00:04.21 bitrate=7957.7kbits/s speed=0.0125x elapsed=0:05:37.12    \nframe=  256 fps=0.8 q=40.3 size=    4096KiB time=00:00:04.23 bitrate=7926.3kbits/s speed=0.0125x elapsed=0:05:37.68    \nframe=  256 fps=0.8 q=40.3 size=    4096KiB time=00:00:04.23 bitrate=7926.3kbits/s speed=0.0125x elapsed=0:05:38.20    \nframe=  257 fps=0.8 q=35.6 size=    4096KiB time=00:00:04.25 bitrate=7895.2kbits/s speed=0.0125x elapsed=0:05:38.75    \nframe=  257 fps=0.8 q=35.6 size=    4096KiB time=00:00:04.25 bitrate=7895.2kbits/s speed=0.0125x elapsed=0:05:39.30    \nframe=  257 fps=0.8 q=35.6 size=    4096KiB time=00:00:04.25 bitrate=7895.2kbits/s speed=0.0125x elapsed=0:05:39.83    \nframe=  257 fps=0.8 q=35.6 size=    4096KiB time=00:00:04.25 bitrate=7895.2kbits/s speed=0.0125x elapsed=0:05:40.37    \nframe=  258 fps=0.8 q=41.0 size=    4096KiB time=00:00:04.26 bitrate=7864.4kbits/s speed=0.0125x elapsed=0:05:40.90    \nframe=  258 fps=0.8 q=41.0 size=    4096KiB time=00:00:04.26 bitrate=7864.4kbits/s speed=0.0125x elapsed=0:05:41.46    \nframe=  258 fps=0.8 q=41.0 size=    4096KiB time=00:00:04.26 bitrate=7864.4kbits/s speed=0.0125x elapsed=0:05:41.99    \nframe=  258 fps=0.8 q=41.0 size=    4096KiB time=00:00:04.26 bitrate=7864.4kbits/s speed=0.0125x elapsed=0:05:42.51    \nframe=  258 fps=0.8 q=41.0 size=    4096KiB time=00:00:04.26 bitrate=7864.4kbits/s speed=0.0124x elapsed=0:05:43.04    \nframe=  258 fps=0.8 q=41.0 size=    4096KiB time=00:00:04.26 bitrate=7864.4kbits/s speed=0.0124x elapsed=0:05:43.59    \nframe=  258 fps=0.7 q=41.0 size=    4096KiB time=00:00:04.26 bitrate=7864.4kbits/s speed=0.0124x elapsed=0:05:44.14    \nframe=  259 fps=0.8 q=41.1 size=    4096KiB time=00:00:04.28 bitrate=7833.8kbits/s speed=0.0124x elapsed=0:05:44.69    \nframe=  260 fps=0.8 q=41.4 size=    4096KiB time=00:00:04.28 bitrate=7833.8kbits/s speed=0.0124x elapsed=0:05:45.25    \nframe=  260 fps=0.8 q=41.4 size=    4096KiB time=00:00:04.30 bitrate=7803.4kbits/s speed=0.0124x elapsed=0:05:45.80    \nframe=  260 fps=0.8 q=41.4 size=    4096KiB time=00:00:04.30 bitrate=7803.4kbits/s speed=0.0124x elapsed=0:05:46.36    \nframe=  261 fps=0.8 q=41.5 size=    4352KiB time=00:00:04.31 bitrate=8259.1kbits/s speed=0.0124x elapsed=0:05:46.88    \nframe=  261 fps=0.8 q=41.5 size=    4352KiB time=00:00:04.31 bitrate=8259.1kbits/s speed=0.0124x elapsed=0:05:47.42    \nframe=  261 fps=0.8 q=41.5 size=    4352KiB time=00:00:04.31 bitrate=8259.1kbits/s speed=0.0124x elapsed=0:05:47.97    \nframe=  261 fps=0.7 q=41.5 size=    4352KiB time=00:00:04.31 bitrate=8259.1kbits/s speed=0.0124x elapsed=0:05:48.51    \nframe=  261 fps=0.7 q=41.5 size=    4352KiB time=00:00:04.31 bitrate=8259.1kbits/s speed=0.0124x elapsed=0:05:49.09    \nframe=  261 fps=0.7 q=41.5 size=    4352KiB time=00:00:04.31 bitrate=8259.1kbits/s speed=0.0123x elapsed=0:05:49.63    \nframe=  262 fps=0.7 q=35.7 size=    4352KiB time=00:00:04.33 bitrate=8227.4kbits/s speed=0.0124x elapsed=0:05:50.18    \nframe=  262 fps=0.7 q=35.7 size=    4352KiB time=00:00:04.33 bitrate=8227.4kbits/s speed=0.0124x elapsed=0:05:50.71    \nframe=  262 fps=0.7 q=35.7 size=    4352KiB time=00:00:04.33 bitrate=8227.4kbits/s speed=0.0123x elapsed=0:05:51.25    \nframe=  262 fps=0.7 q=35.7 size=    4352KiB time=00:00:04.33 bitrate=8227.4kbits/s speed=0.0123x elapsed=0:05:51.79    \nframe=  263 fps=0.7 q=41.2 size=    4352KiB time=00:00:04.35 bitrate=8195.8kbits/s speed=0.0123x elapsed=0:05:52.30    \nframe=  263 fps=0.7 q=41.2 size=    4352KiB time=00:00:04.35 bitrate=8195.8kbits/s speed=0.0123x elapsed=0:05:52.82    \nframe=  264 fps=0.7 q=41.5 size=    4352KiB time=00:00:04.36 bitrate=8164.6kbits/s speed=0.0124x elapsed=0:05:53.34    \nframe=  264 fps=0.7 q=41.5 size=    4352KiB time=00:00:04.36 bitrate=8164.6kbits/s speed=0.0123x elapsed=0:05:53.85    \nframe=  264 fps=0.7 q=41.5 size=    4352KiB time=00:00:04.36 bitrate=8164.6kbits/s speed=0.0123x elapsed=0:05:54.40    \nframe=  265 fps=0.7 q=42.1 size=    4352KiB time=00:00:04.38 bitrate=8133.5kbits/s speed=0.0123x elapsed=0:05:54.93    \nframe=  265 fps=0.7 q=42.1 size=    4352KiB time=00:00:04.38 bitrate=8133.5kbits/s speed=0.0123x elapsed=0:05:55.45    \nframe=  266 fps=0.7 q=41.8 size=    4352KiB time=00:00:04.40 bitrate=8102.7kbits/s speed=0.0124x elapsed=0:05:55.96    \nframe=  266 fps=0.7 q=41.8 size=    4352KiB time=00:00:04.40 bitrate=8102.7kbits/s speed=0.0123x elapsed=0:05:56.48    \nframe=  267 fps=0.7 q=35.9 size=    4352KiB time=00:00:04.41 bitrate=8072.1kbits/s speed=0.0124x elapsed=0:05:56.99    \nframe=  267 fps=0.7 q=35.9 size=    4352KiB time=00:00:04.41 bitrate=8072.1kbits/s speed=0.0124x elapsed=0:05:57.52    \nframe=  268 fps=0.7 q=41.5 size=    4352KiB time=00:00:04.43 bitrate=8041.8kbits/s speed=0.0124x elapsed=0:05:58.03    \nframe=  268 fps=0.7 q=41.5 size=    4352KiB time=00:00:04.43 bitrate=8041.8kbits/s speed=0.0124x elapsed=0:05:58.55    \nframe=  269 fps=0.7 q=41.8 size=    4352KiB time=00:00:04.45 bitrate=8011.7kbits/s speed=0.0124x elapsed=0:05:59.07    \nframe=  270 fps=0.8 q=42.3 size=    4352KiB time=00:00:04.46 bitrate=7981.8kbits/s speed=0.0124x elapsed=0:05:59.59    \nframe=  270 fps=0.7 q=42.3 size=    4352KiB time=00:00:04.46 bitrate=7981.8kbits/s speed=0.0124x elapsed=0:06:00.13    \nframe=  271 fps=0.8 q=42.1 size=    4352KiB time=00:00:04.48 bitrate=7952.1kbits/s speed=0.0124x elapsed=0:06:00.66    \nframe=  271 fps=0.8 q=42.1 size=    4352KiB time=00:00:04.48 bitrate=7952.1kbits/s speed=0.0124x elapsed=0:06:01.18    \nframe=  271 fps=0.7 q=42.1 size=    4352KiB time=00:00:04.48 bitrate=7952.1kbits/s speed=0.0124x elapsed=0:06:01.72    \nframe=  272 fps=0.8 q=36.3 size=    4352KiB time=00:00:04.50 bitrate=7922.7kbits/s speed=0.0124x elapsed=0:06:02.24    \nframe=  272 fps=0.7 q=36.3 size=    4352KiB time=00:00:04.50 bitrate=7922.7kbits/s speed=0.0124x elapsed=0:06:02.77    \nframe=  273 fps=0.8 q=41.7 size=    4352KiB time=00:00:04.51 bitrate=7893.4kbits/s speed=0.0124x elapsed=0:06:03.30    \nframe=  273 fps=0.8 q=41.7 size=    4352KiB time=00:00:04.51 bitrate=7893.4kbits/s speed=0.0124x elapsed=0:06:03.82    \nframe=  273 fps=0.7 q=41.7 size=    4352KiB time=00:00:04.51 bitrate=7893.4kbits/s speed=0.0124x elapsed=0:06:04.34    \nframe=  273 fps=0.7 q=41.7 size=    4352KiB time=00:00:04.51 bitrate=7893.4kbits/s speed=0.0124x elapsed=0:06:04.86    \nframe=  273 fps=0.7 q=41.7 size=    4352KiB time=00:00:04.51 bitrate=7893.4kbits/s speed=0.0124x elapsed=0:06:05.37    \nframe=  273 fps=0.7 q=41.7 size=    4352KiB time=00:00:04.51 bitrate=7893.4kbits/s speed=0.0123x elapsed=0:06:05.90    \nframe=  274 fps=0.7 q=42.0 size=    4608KiB time=00:00:04.53 bitrate=8327.0kbits/s speed=0.0124x elapsed=0:06:06.42    \nframe=  274 fps=0.7 q=42.0 size=    4608KiB time=00:00:04.53 bitrate=8327.0kbits/s speed=0.0124x elapsed=0:06:06.96    \nframe=  276 fps=0.8 q=42.3 size=    4608KiB time=00:00:04.56 bitrate=8266.2kbits/s speed=0.0124x elapsed=0:06:07.46    \nframe=  276 fps=0.8 q=42.3 size=    4608KiB time=00:00:04.56 bitrate=8266.2kbits/s speed=0.0124x elapsed=0:06:07.99    \nframe=  276 fps=0.7 q=42.3 size=    4608KiB time=00:00:04.56 bitrate=8266.2kbits/s speed=0.0124x elapsed=0:06:08.52    \nframe=  277 fps=0.8 q=36.6 size=    4608KiB time=00:00:04.58 bitrate=8236.2kbits/s speed=0.0124x elapsed=0:06:09.03    \nframe=  277 fps=0.7 q=36.6 size=    4608KiB time=00:00:04.58 bitrate=8236.2kbits/s speed=0.0124x elapsed=0:06:09.56    \nframe=  277 fps=0.7 q=36.6 size=    4608KiB time=00:00:04.58 bitrate=8236.2kbits/s speed=0.0124x elapsed=0:06:10.08    \nframe=  278 fps=0.8 q=40.9 size=    4608KiB time=00:00:04.60 bitrate=8206.3kbits/s speed=0.0124x elapsed=0:06:10.62    \nframe=  278 fps=0.7 q=40.9 size=    4608KiB time=00:00:04.60 bitrate=8206.3kbits/s speed=0.0124x elapsed=0:06:11.13    \nframe=  278 fps=0.7 q=40.9 size=    4608KiB time=00:00:04.60 bitrate=8206.3kbits/s speed=0.0124x elapsed=0:06:11.68    \nframe=  278 fps=0.7 q=40.9 size=    4608KiB time=00:00:04.60 bitrate=8206.3kbits/s speed=0.0124x elapsed=0:06:12.20    \nframe=  278 fps=0.7 q=40.9 size=    4608KiB time=00:00:04.60 bitrate=8206.3kbits/s speed=0.0123x elapsed=0:06:12.76    \nframe=  278 fps=0.7 q=40.9 size=    4608KiB time=00:00:04.60 bitrate=8206.3kbits/s speed=0.0123x elapsed=0:06:13.30    \nframe=  279 fps=0.7 q=42.3 size=    4608KiB time=00:00:04.60 bitrate=8206.3kbits/s speed=0.0123x elapsed=0:06:13.81    \nframe=  279 fps=0.7 q=42.3 size=    4608KiB time=00:00:04.61 bitrate=8176.7kbits/s speed=0.0123x elapsed=0:06:14.34    \nframe=  280 fps=0.7 q=42.5 size=    4608KiB time=00:00:04.63 bitrate=8147.3kbits/s speed=0.0124x elapsed=0:06:14.86    \nframe=  280 fps=0.7 q=42.5 size=    4608KiB time=00:00:04.63 bitrate=8147.3kbits/s speed=0.0123x elapsed=0:06:15.41    \nframe=  281 fps=0.7 q=36.3 size=    4608KiB time=00:00:04.65 bitrate=8118.1kbits/s speed=0.0124x elapsed=0:06:15.93    \nframe=  281 fps=0.7 q=36.3 size=    4608KiB time=00:00:04.65 bitrate=8118.1kbits/s speed=0.0124x elapsed=0:06:16.46    \nframe=  282 fps=0.7 q=41.1 size=    4608KiB time=00:00:04.66 bitrate=8089.1kbits/s speed=0.0124x elapsed=0:06:16.99    \nframe=  282 fps=0.7 q=41.1 size=    4608KiB time=00:00:04.66 bitrate=8089.1kbits/s speed=0.0124x elapsed=0:06:17.54    \nframe=  282 fps=0.7 q=41.1 size=    4608KiB time=00:00:04.66 bitrate=8089.1kbits/s speed=0.0123x elapsed=0:06:18.06    \nframe=  282 fps=0.7 q=41.1 size=    4608KiB time=00:00:04.66 bitrate=8089.1kbits/s speed=0.0123x elapsed=0:06:18.63    \nframe=  282 fps=0.7 q=41.1 size=    4608KiB time=00:00:04.66 bitrate=8089.1kbits/s speed=0.0123x elapsed=0:06:19.26    \nframe=  282 fps=0.7 q=41.1 size=    4608KiB time=00:00:04.66 bitrate=8089.1kbits/s speed=0.0123x elapsed=0:06:19.83    \nframe=  282 fps=0.7 q=41.1 size=    4608KiB time=00:00:04.66 bitrate=8089.1kbits/s speed=0.0123x elapsed=0:06:20.39    \nframe=  282 fps=0.7 q=41.1 size=    4608KiB time=00:00:04.66 bitrate=8089.1kbits/s speed=0.0122x elapsed=0:06:20.97    \nframe=  282 fps=0.7 q=41.1 size=    4608KiB time=00:00:04.66 bitrate=8089.1kbits/s speed=0.0122x elapsed=0:06:21.60    \nframe=  282 fps=0.7 q=41.1 size=    4608KiB time=00:00:04.66 bitrate=8089.1kbits/s speed=0.0122x elapsed=0:06:22.24    \nframe=  282 fps=0.7 q=41.1 size=    4608KiB time=00:00:04.66 bitrate=8089.1kbits/s speed=0.0122x elapsed=0:06:22.85    \nframe=  282 fps=0.7 q=41.1 size=    4608KiB time=00:00:04.66 bitrate=8089.1kbits/s speed=0.0122x elapsed=0:06:23.54    \nframe=  283 fps=0.7 q=42.6 size=    4608KiB time=00:00:04.68 bitrate=8060.3kbits/s speed=0.0122x elapsed=0:06:24.10    \nframe=  283 fps=0.7 q=42.6 size=    4608KiB time=00:00:04.68 bitrate=8060.3kbits/s speed=0.0122x elapsed=0:06:24.64    \nframe=  283 fps=0.7 q=42.6 size=    4608KiB time=00:00:04.68 bitrate=8060.3kbits/s speed=0.0122x elapsed=0:06:25.35    \nframe=  283 fps=0.7 q=42.6 size=    4608KiB time=00:00:04.68 bitrate=8060.3kbits/s speed=0.0121x elapsed=0:06:26.04    \nframe=  283 fps=0.7 q=42.6 size=    4608KiB time=00:00:04.68 bitrate=8060.3kbits/s speed=0.0121x elapsed=0:06:26.59    \nframe=  283 fps=0.7 q=42.6 size=    4608KiB time=00:00:04.68 bitrate=8060.3kbits/s speed=0.0121x elapsed=0:06:27.19    \nframe=  283 fps=0.7 q=42.6 size=    4608KiB time=00:00:04.68 bitrate=8060.3kbits/s speed=0.0121x elapsed=0:06:27.90    \nframe=  283 fps=0.7 q=42.6 size=    4608KiB time=00:00:04.68 bitrate=8060.3kbits/s speed=0.0121x elapsed=0:06:28.57    \nframe=  283 fps=0.7 q=42.6 size=    4608KiB time=00:00:04.68 bitrate=8060.3kbits/s speed=0.012x elapsed=0:06:29.17    \nframe=  283 fps=0.7 q=42.6 size=    4608KiB time=00:00:04.68 bitrate=8060.3kbits/s speed=0.012x elapsed=0:06:29.93    \nframe=  283 fps=0.7 q=42.6 size=    4608KiB time=00:00:04.68 bitrate=8060.3kbits/s speed=0.012x elapsed=0:06:30.67    \nframe=  283 fps=0.7 q=42.6 size=    4608KiB time=00:00:04.68 bitrate=8060.3kbits/s speed=0.012x elapsed=0:06:31.40    \nframe=  283 fps=0.7 q=42.6 size=    4608KiB time=00:00:04.68 bitrate=8060.3kbits/s speed=0.0119x elapsed=0:06:32.11    \nframe=  283 fps=0.7 q=42.6 size=    4608KiB time=00:00:04.68 bitrate=8060.3kbits/s speed=0.0119x elapsed=0:06:32.83    \nframe=  284 fps=0.7 q=42.9 size=    4608KiB time=00:00:04.70 bitrate=8031.7kbits/s speed=0.0119x elapsed=0:06:33.38    \nframe=  284 fps=0.7 q=42.9 size=    4608KiB time=00:00:04.70 bitrate=8031.7kbits/s speed=0.0119x elapsed=0:06:34.04    \nframe=  284 fps=0.7 q=42.9 size=    4608KiB time=00:00:04.70 bitrate=8031.7kbits/s speed=0.0119x elapsed=0:06:34.78    \nframe=  284 fps=0.7 q=42.9 size=    4608KiB time=00:00:04.70 bitrate=8031.7kbits/s speed=0.0119x elapsed=0:06:35.52    \nframe=  284 fps=0.7 q=42.9 size=    4608KiB time=00:00:04.70 bitrate=8031.7kbits/s speed=0.0119x elapsed=0:06:36.16    \nframe=  284 fps=0.7 q=42.9 size=    4608KiB time=00:00:04.70 bitrate=8031.7kbits/s speed=0.0118x elapsed=0:06:36.74    \nframe=  284 fps=0.7 q=42.9 size=    4608KiB time=00:00:04.70 bitrate=8031.7kbits/s speed=0.0118x elapsed=0:06:37.44    \nframe=  284 fps=0.7 q=42.9 size=    4608KiB time=00:00:04.70 bitrate=8031.7kbits/s speed=0.0118x elapsed=0:06:38.08    \nframe=  284 fps=0.7 q=42.9 size=    4608KiB time=00:00:04.70 bitrate=8031.7kbits/s speed=0.0118x elapsed=0:06:38.74    \nframe=  284 fps=0.7 q=42.9 size=    4608KiB time=00:00:04.70 bitrate=8031.7kbits/s speed=0.0118x elapsed=0:06:39.29    \nframe=  284 fps=0.7 q=42.9 size=    4608KiB time=00:00:04.70 bitrate=8031.7kbits/s speed=0.0118x elapsed=0:06:39.99    \nframe=  284 fps=0.7 q=42.9 size=    4608KiB time=00:00:04.70 bitrate=8031.7kbits/s speed=0.0117x elapsed=0:06:40.70    \nframe=  284 fps=0.7 q=42.9 size=    4608KiB time=00:00:04.70 bitrate=8031.7kbits/s speed=0.0117x elapsed=0:06:41.45    \nframe=  284 fps=0.7 q=42.9 size=    4608KiB time=00:00:04.70 bitrate=8031.7kbits/s speed=0.0117x elapsed=0:06:42.12    \nframe=  285 fps=0.7 q=42.7 size=    4608KiB time=00:00:04.71 bitrate=8003.3kbits/s speed=0.0117x elapsed=0:06:42.68    \nframe=  285 fps=0.7 q=42.7 size=    4608KiB time=00:00:04.71 bitrate=8003.3kbits/s speed=0.0117x elapsed=0:06:43.31    \nframe=  285 fps=0.7 q=42.7 size=    4608KiB time=00:00:04.71 bitrate=8003.3kbits/s speed=0.0117x elapsed=0:06:44.00    \nframe=  285 fps=0.7 q=42.7 size=    4608KiB time=00:00:04.71 bitrate=8003.3kbits/s speed=0.0117x elapsed=0:06:44.67    \nframe=  285 fps=0.7 q=42.7 size=    4608KiB time=00:00:04.71 bitrate=8003.3kbits/s speed=0.0116x elapsed=0:06:45.29    \nframe=  285 fps=0.7 q=42.7 size=    4608KiB time=00:00:04.71 bitrate=8003.3kbits/s speed=0.0116x elapsed=0:06:45.85    \nframe=  285 fps=0.7 q=42.7 size=    4608KiB time=00:00:04.71 bitrate=8003.3kbits/s speed=0.0116x elapsed=0:06:46.47    \nframe=  285 fps=0.7 q=42.7 size=    4608KiB time=00:00:04.71 bitrate=8003.3kbits/s speed=0.0116x elapsed=0:06:47.14    \nframe=  285 fps=0.7 q=42.7 size=    4608KiB time=00:00:04.71 bitrate=8003.3kbits/s speed=0.0116x elapsed=0:06:47.85    \nframe=  285 fps=0.7 q=42.7 size=    4608KiB time=00:00:04.71 bitrate=8003.3kbits/s speed=0.0115x elapsed=0:06:48.53    \nframe=  285 fps=0.7 q=42.7 size=    4608KiB time=00:00:04.71 bitrate=8003.3kbits/s speed=0.0115x elapsed=0:06:49.23    \nframe=  285 fps=0.7 q=42.7 size=    4608KiB time=00:00:04.71 bitrate=8003.3kbits/s speed=0.0115x elapsed=0:06:49.77    \nframe=  285 fps=0.7 q=42.7 size=    4608KiB time=00:00:04.71 bitrate=8003.3kbits/s speed=0.0115x elapsed=0:06:50.31    \nframe=  286 fps=0.7 q=36.6 size=    4608KiB time=00:00:04.71 bitrate=8003.3kbits/s speed=0.0115x elapsed=0:06:50.83    \nframe=  286 fps=0.7 q=36.6 size=    4608KiB time=00:00:04.73 bitrate=7975.2kbits/s speed=0.0115x elapsed=0:06:51.38    \nframe=  286 fps=0.7 q=36.6 size=    4608KiB time=00:00:04.73 bitrate=7975.2kbits/s speed=0.0115x elapsed=0:06:51.88    \nframe=  286 fps=0.7 q=36.6 size=    4608KiB time=00:00:04.73 bitrate=7975.2kbits/s speed=0.0115x elapsed=0:06:52.43    \nframe=  286 fps=0.7 q=36.6 size=    4608KiB time=00:00:04.73 bitrate=7975.2kbits/s speed=0.0115x elapsed=0:06:52.99    \nframe=  287 fps=0.7 q=41.2 size=    4608KiB time=00:00:04.75 bitrate=7947.2kbits/s speed=0.0115x elapsed=0:06:53.51    \nframe=  287 fps=0.7 q=41.2 size=    4608KiB time=00:00:04.75 bitrate=7947.2kbits/s speed=0.0115x elapsed=0:06:54.04    \nframe=  287 fps=0.7 q=41.2 size=    4608KiB time=00:00:04.75 bitrate=7947.2kbits/s speed=0.0115x elapsed=0:06:54.57    \nframe=  288 fps=0.7 q=42.6 size=    4864KiB time=00:00:04.76 bitrate=8359.4kbits/s speed=0.0115x elapsed=0:06:55.09    \nframe=  289 fps=0.7 q=43.1 size=    4864KiB time=00:00:04.78 bitrate=8330.2kbits/s speed=0.0115x elapsed=0:06:55.62    \nframe=  289 fps=0.7 q=43.1 size=    4864KiB time=00:00:04.78 bitrate=8330.2kbits/s speed=0.0115x elapsed=0:06:56.15    \nframe=  289 fps=0.7 q=43.1 size=    4864KiB time=00:00:04.78 bitrate=8330.2kbits/s speed=0.0115x elapsed=0:06:56.68    \nframe=  290 fps=0.7 q=42.7 size=    4864KiB time=00:00:04.80 bitrate=8301.3kbits/s speed=0.0115x elapsed=0:06:57.18    \nframe=  290 fps=0.7 q=42.7 size=    4864KiB time=00:00:04.80 bitrate=8301.3kbits/s speed=0.0115x elapsed=0:06:57.70    \nframe=  291 fps=0.7 q=36.7 size=    4864KiB time=00:00:04.81 bitrate=8272.6kbits/s speed=0.0115x elapsed=0:06:58.22    \nframe=  291 fps=0.7 q=36.7 size=    4864KiB time=00:00:04.81 bitrate=8272.6kbits/s speed=0.0115x elapsed=0:06:58.76    \nframe=  291 fps=0.7 q=36.7 size=    4864KiB time=00:00:04.81 bitrate=8272.6kbits/s speed=0.0115x elapsed=0:06:59.28    \nframe=  292 fps=0.7 q=40.6 size=    4864KiB time=00:00:04.83 bitrate=8244.1kbits/s speed=0.0115x elapsed=0:06:59.82    \nframe=  292 fps=0.7 q=40.6 size=    4864KiB time=00:00:04.83 bitrate=8244.1kbits/s speed=0.0115x elapsed=0:07:00.33    \nframe=  292 fps=0.7 q=40.6 size=    4864KiB time=00:00:04.83 bitrate=8244.1kbits/s speed=0.0115x elapsed=0:07:00.84    \nframe=  292 fps=0.7 q=40.6 size=    4864KiB time=00:00:04.83 bitrate=8244.1kbits/s speed=0.0115x elapsed=0:07:01.37    \nframe=  292 fps=0.7 q=40.6 size=    4864KiB time=00:00:04.83 bitrate=8244.1kbits/s speed=0.0115x elapsed=0:07:01.91    \nframe=  293 fps=0.7 q=42.6 size=    4864KiB time=00:00:04.85 bitrate=8215.7kbits/s speed=0.0115x elapsed=0:07:02.46    \nframe=  294 fps=0.7 q=42.5 size=    4864KiB time=00:00:04.86 bitrate=8187.6kbits/s speed=0.0115x elapsed=0:07:02.98    \nframe=  295 fps=0.7 q=42.1 size=    4864KiB time=00:00:04.88 bitrate=8159.6kbits/s speed=0.0115x elapsed=0:07:03.50    \nframe=  295 fps=0.7 q=42.1 size=    4864KiB time=00:00:04.88 bitrate=8159.6kbits/s speed=0.0115x elapsed=0:07:04.02    \nframe=  295 fps=0.7 q=42.1 size=    4864KiB time=00:00:04.88 bitrate=8159.6kbits/s speed=0.0115x elapsed=0:07:04.53    \nframe=  296 fps=0.7 q=38.3 size=    4864KiB time=00:00:04.90 bitrate=8131.9kbits/s speed=0.0115x elapsed=0:07:05.07    \nframe=  296 fps=0.7 q=38.3 size=    4864KiB time=00:00:04.90 bitrate=8131.9kbits/s speed=0.0115x elapsed=0:07:05.61    \nframe=  296 fps=0.7 q=38.3 size=    4864KiB time=00:00:04.90 bitrate=8131.9kbits/s speed=0.0115x elapsed=0:07:06.13    \nframe=  297 fps=0.7 q=42.3 size=    4864KiB time=00:00:04.91 bitrate=8104.3kbits/s speed=0.0115x elapsed=0:07:06.66    \nframe=  297 fps=0.7 q=42.3 size=    4864KiB time=00:00:04.91 bitrate=8104.3kbits/s speed=0.0115x elapsed=0:07:07.19    \nframe=  297 fps=0.7 q=42.3 size=    4864KiB time=00:00:04.91 bitrate=8104.3kbits/s speed=0.0115x elapsed=0:07:07.69    \nframe=  299 fps=0.7 q=42.6 size=    4864KiB time=00:00:04.95 bitrate=8049.7kbits/s speed=0.0116x elapsed=0:07:08.22    \n[mp4 @ 00000279aae97ac0] Starting second pass: moving the moov atom to the beginning of the file\n[out#0/mp4 @ 00000279aae0ab40] video:5096KiB audio:0KiB subtitle:0KiB other streams:0KiB global headers:2KiB muxing overhead: 0.131874%\nframe=  300 fps=0.7 q=42.1 Lsize=    5103KiB time=00:00:04.96 bitrate=8416.9kbits/s speed=0.0116x elapsed=0:07:08.51    \nx265 [info]: frame I:      2, Avg QP:30.87  kb/s: 100921.44\nx265 [info]: frame P:     59, Avg QP:30.40  kb/s: 17159.66\nx265 [info]: frame B:    239, Avg QP:37.08  kb/s: 5397.89 \nx265 [info]: Weighted P-Frames: Y:0.0% UV:0.0%\n\nencoded 300 frames in 427.86s (0.70 fps), 8347.86 kb/s, Avg QP:35.72\n",
  "seconds": 428.9828817844391,
  "probe_out": {}
}